<?xml version="1.0" encoding="UTF-8" standalone="no"?>

<svg width="100%" height="100%" viewBox="0 0 133 138" version="1.1" xmlns="http://www.w3.org/2000/svg" xmlns:xlink="http://www.w3.org/1999/xlink" xml:space="preserve" xmlns:serif="http://www.serif.com/" style="fill-rule:evenodd;clip-rule:evenodd;stroke-linejoin:round;stroke-miterlimit:2;">
    <g id="g1">
        <g id="g8">
            <path id="path14" d="M4.042,75.164C4.11,74.96 4.986,72.098 5.988,68.802C8.282,61.264 8.603,60.426 10.171,57.905C11.691,55.462 14.021,52.99 16.433,51.263C18.566,49.736 21.747,48.285 24.457,47.602C24.913,47.488 34.365,45.97 45.462,44.229C56.559,42.488 68.304,40.642 71.562,40.127C74.821,39.612 78.729,38.995 80.247,38.755C84.621,38.065 86.31,38.195 88.615,39.397C89.233,39.72 91.087,40.649 92.735,41.463L95.731,42.942L95.411,43.653C95.235,44.045 94.56,45.477 93.909,46.836L92.727,49.307L93.294,50.649L91.537,56.393C90.571,59.552 89.767,62.152 89.749,62.171C89.707,62.215 4.348,75.534 4.106,75.534C3.961,75.534 3.947,75.45 4.042,75.164L4.042,75.164Z" style="fill:rgb(238,194,22);fill-rule:nonzero;stroke:rgb(226,226,225);stroke-width:7.5px;"></path>
            <path id="path13" d="M128.19,103.596C128.196,103.439 128.229,103.407 128.271,103.515C128.31,103.612 128.306,103.728 128.261,103.773C128.216,103.817 128.184,103.738 128.19,103.596L128.19,103.596ZM128.325,102.788C128.331,102.631 128.363,102.599 128.406,102.707C128.445,102.804 128.44,102.92 128.395,102.965C128.351,103.01 128.319,102.93 128.325,102.788L128.325,102.788ZM128.47,101.924C128.47,101.739 128.501,101.663 128.538,101.756C128.575,101.849 128.575,102 128.538,102.093C128.501,102.185 128.47,102.109 128.47,101.924ZM128.61,100.645C128.613,100.423 128.643,100.348 128.677,100.479C128.711,100.61 128.709,100.792 128.672,100.883C128.635,100.975 128.607,100.867 128.61,100.645ZM128.762,98.087C128.763,97.569 128.787,97.373 128.816,97.652C128.845,97.932 128.845,98.356 128.815,98.595C128.786,98.834 128.762,98.605 128.762,98.087L128.762,98.087ZM128.615,95.461C128.615,95.202 128.642,95.096 128.676,95.226C128.71,95.355 128.71,95.567 128.676,95.697C128.642,95.827 128.615,95.721 128.615,95.461ZM128.459,94.171C128.465,94.014 128.498,93.982 128.541,94.09C128.58,94.187 128.575,94.303 128.53,94.348C128.485,94.393 128.454,94.313 128.459,94.171L128.459,94.171ZM128.325,93.229C128.331,93.072 128.363,93.04 128.406,93.147C128.445,93.244 128.44,93.361 128.396,93.405C128.351,93.45 128.319,93.371 128.325,93.229L128.325,93.229ZM9.964,58.031C10.043,57.883 10.138,57.762 10.175,57.762C10.212,57.762 10.177,57.883 10.098,58.031C10.019,58.179 9.924,58.3 9.887,58.3C9.85,58.3 9.884,58.179 9.964,58.031L9.964,58.031ZM10.771,56.768C10.771,56.74 10.877,56.634 11.007,56.533C11.221,56.365 11.225,56.37 11.058,56.583C10.882,56.808 10.771,56.879 10.771,56.768L10.771,56.768ZM11.175,56.23C11.175,56.202 11.281,56.096 11.411,55.994C11.624,55.827 11.629,55.831 11.462,56.045C11.286,56.269 11.175,56.34 11.175,56.23L11.175,56.23ZM11.849,55.405C12.022,55.22 12.195,55.069 12.232,55.069C12.269,55.069 12.157,55.22 11.983,55.405C11.809,55.59 11.637,55.742 11.6,55.742C11.563,55.742 11.675,55.59 11.849,55.405ZM13.397,53.722C13.986,53.13 14.498,52.645 14.535,52.645C14.572,52.645 14.121,53.13 13.532,53.722C12.943,54.315 12.43,54.799 12.393,54.799C12.356,54.799 12.808,54.315 13.397,53.722ZM15.013,52.241C15.147,52.093 15.287,51.972 15.324,51.972C15.361,51.972 15.281,52.093 15.147,52.241C15.013,52.389 14.873,52.511 14.836,52.511C14.799,52.511 14.879,52.389 15.013,52.241ZM15.484,51.921C15.484,51.893 15.59,51.787 15.719,51.685C15.933,51.518 15.938,51.523 15.77,51.736C15.594,51.961 15.484,52.032 15.484,51.921L15.484,51.921ZM16.022,51.517C16.022,51.489 16.128,51.383 16.258,51.282C16.472,51.114 16.476,51.119 16.309,51.332C16.133,51.557 16.022,51.628 16.022,51.517L16.022,51.517ZM103.927,47.293C103.759,47.08 103.764,47.075 103.978,47.242C104.107,47.344 104.213,47.45 104.213,47.478C104.213,47.589 104.103,47.517 103.927,47.293L103.927,47.293ZM26.23,47.167C26.327,47.129 26.443,47.133 26.488,47.178C26.533,47.223 26.453,47.255 26.311,47.249C26.155,47.242 26.123,47.21 26.23,47.167L26.23,47.167ZM27.173,47.033C27.27,46.994 27.386,46.999 27.431,47.043C27.475,47.088 27.396,47.12 27.254,47.114C27.097,47.108 27.065,47.076 27.173,47.033L27.173,47.033ZM27.98,46.898C28.078,46.859 28.194,46.864 28.238,46.909C28.283,46.954 28.204,46.985 28.062,46.98C27.905,46.973 27.873,46.941 27.98,46.898L27.98,46.898ZM28.78,46.766C28.872,46.729 29.024,46.729 29.116,46.766C29.209,46.804 29.133,46.834 28.948,46.834C28.763,46.834 28.687,46.804 28.78,46.766ZM29.731,46.629C29.828,46.59 29.944,46.595 29.989,46.64C30.034,46.684 29.954,46.716 29.812,46.71C29.655,46.704 29.623,46.672 29.731,46.629L29.731,46.629ZM30.539,46.494C30.636,46.455 30.752,46.46 30.797,46.505C30.841,46.55 30.762,46.581 30.62,46.576C30.463,46.569 30.431,46.537 30.539,46.494L30.539,46.494ZM31.481,46.36C31.578,46.321 31.694,46.326 31.739,46.37C31.784,46.415 31.704,46.447 31.562,46.441C31.406,46.434 31.374,46.403 31.481,46.36L31.481,46.36ZM32.289,46.225C32.386,46.186 32.502,46.191 32.547,46.236C32.592,46.28 32.512,46.312 32.37,46.306C32.213,46.3 32.182,46.268 32.289,46.225L32.289,46.225ZM33.088,46.093C33.181,46.056 33.332,46.056 33.425,46.093C33.518,46.131 33.442,46.161 33.257,46.161C33.072,46.161 32.996,46.131 33.088,46.093ZM34.039,45.956C34.136,45.917 34.253,45.922 34.297,45.966C34.342,46.011 34.263,46.043 34.121,46.037C33.964,46.031 33.932,45.999 34.039,45.956L34.039,45.956ZM34.847,45.821C34.944,45.782 35.06,45.787 35.105,45.832C35.15,45.876 35.07,45.908 34.928,45.902C34.772,45.896 34.74,45.864 34.847,45.821L34.847,45.821ZM35.79,45.686C35.887,45.648 36.003,45.652 36.048,45.697C36.092,45.742 36.013,45.774 35.871,45.768C35.714,45.761 35.682,45.729 35.79,45.686L35.79,45.686ZM36.597,45.552C36.695,45.513 36.811,45.518 36.856,45.562C36.9,45.607 36.821,45.639 36.679,45.633C36.522,45.627 36.49,45.595 36.597,45.552L36.597,45.552ZM37.397,45.42C37.489,45.383 37.641,45.383 37.734,45.42C37.826,45.457 37.75,45.488 37.565,45.488C37.38,45.488 37.304,45.457 37.397,45.42ZM38.348,45.282C38.445,45.244 38.561,45.248 38.606,45.293C38.651,45.338 38.571,45.37 38.429,45.364C38.272,45.357 38.24,45.325 38.348,45.282L38.348,45.282ZM39.147,45.151C39.24,45.113 39.391,45.113 39.484,45.151C39.576,45.188 39.501,45.219 39.316,45.219C39.13,45.219 39.055,45.188 39.147,45.151ZM40.098,45.013C40.195,44.974 40.312,44.979 40.356,45.024C40.401,45.069 40.321,45.1 40.18,45.095C40.023,45.088 39.991,45.056 40.098,45.013L40.098,45.013ZM40.906,44.879C41.003,44.84 41.119,44.844 41.164,44.889C41.209,44.934 41.129,44.966 40.987,44.96C40.831,44.953 40.799,44.922 40.906,44.879L40.906,44.879ZM41.849,44.744C41.946,44.705 42.062,44.71 42.107,44.755C42.151,44.799 42.072,44.831 41.93,44.825C41.773,44.819 41.741,44.787 41.849,44.744L41.849,44.744ZM42.656,44.609C42.754,44.57 42.87,44.575 42.914,44.62C42.959,44.665 42.88,44.696 42.738,44.691C42.581,44.684 42.549,44.652 42.656,44.609L42.656,44.609ZM43.456,44.477C43.548,44.44 43.7,44.44 43.792,44.477C43.885,44.515 43.809,44.545 43.624,44.545C43.439,44.545 43.363,44.515 43.456,44.477ZM44.407,44.34C44.504,44.301 44.62,44.306 44.665,44.351C44.71,44.395 44.63,44.427 44.488,44.421C44.331,44.415 44.299,44.383 44.407,44.34L44.407,44.34ZM45.215,44.205C45.312,44.166 45.428,44.171 45.473,44.216C45.517,44.261 45.438,44.293 45.296,44.287C45.139,44.28 45.107,44.248 45.215,44.205L45.215,44.205ZM46.157,44.071C46.254,44.032 46.37,44.037 46.415,44.081C46.46,44.126 46.38,44.158 46.238,44.152C46.082,44.146 46.05,44.114 46.157,44.071L46.157,44.071ZM46.965,43.936C47.062,43.897 47.178,43.902 47.223,43.947C47.268,43.991 47.188,44.023 47.046,44.017C46.889,44.011 46.858,43.979 46.965,43.936L46.965,43.936ZM47.764,43.804C47.857,43.767 48.008,43.767 48.101,43.804C48.194,43.842 48.118,43.872 47.933,43.872C47.748,43.872 47.672,43.842 47.764,43.804ZM48.715,43.667C48.812,43.628 48.929,43.633 48.973,43.677C49.018,43.722 48.939,43.754 48.797,43.748C48.64,43.742 48.608,43.71 48.715,43.667L48.715,43.667ZM49.523,43.532C49.62,43.493 49.736,43.498 49.781,43.543C49.826,43.588 49.746,43.619 49.604,43.613C49.448,43.607 49.416,43.575 49.523,43.532L49.523,43.532ZM50.466,43.398C50.563,43.359 50.679,43.363 50.724,43.408C50.768,43.453 50.689,43.485 50.547,43.479C50.39,43.472 50.358,43.44 50.466,43.398L50.466,43.398ZM51.273,43.263C51.371,43.224 51.487,43.229 51.532,43.273C51.576,43.318 51.497,43.35 51.355,43.344C51.198,43.338 51.166,43.306 51.273,43.263L51.273,43.263ZM52.073,43.131C52.166,43.094 52.317,43.094 52.41,43.131C52.502,43.168 52.426,43.199 52.241,43.199C52.056,43.199 51.98,43.168 52.073,43.131ZM53.024,42.994C53.121,42.955 53.237,42.959 53.282,43.004C53.327,43.049 53.247,43.081 53.105,43.075C52.948,43.068 52.916,43.037 53.024,42.994L53.024,42.994ZM53.832,42.859C53.929,42.82 54.045,42.825 54.09,42.87C54.135,42.914 54.055,42.946 53.913,42.94C53.756,42.934 53.724,42.902 53.832,42.859L53.832,42.859ZM54.774,42.724C54.871,42.685 54.988,42.69 55.032,42.735C55.077,42.78 54.997,42.811 54.856,42.806C54.699,42.799 54.667,42.767 54.774,42.724L54.774,42.724ZM55.582,42.59C55.679,42.551 55.795,42.556 55.84,42.6C55.885,42.645 55.805,42.677 55.663,42.671C55.507,42.664 55.475,42.633 55.582,42.59L55.582,42.59ZM56.381,42.458C56.474,42.42 56.626,42.42 56.718,42.458C56.811,42.495 56.735,42.526 56.55,42.526C56.365,42.526 56.289,42.495 56.381,42.458ZM57.332,42.32C57.43,42.281 57.546,42.286 57.59,42.331C57.635,42.376 57.556,42.408 57.414,42.402C57.257,42.395 57.225,42.363 57.332,42.32L57.332,42.32ZM58.14,42.186C58.237,42.147 58.354,42.152 58.398,42.196C58.443,42.241 58.364,42.273 58.222,42.267C58.065,42.261 58.033,42.229 58.14,42.186L58.14,42.186ZM59.083,42.051C59.18,42.012 59.296,42.017 59.341,42.062C59.386,42.106 59.306,42.138 59.164,42.132C59.007,42.126 58.975,42.094 59.083,42.051L59.083,42.051ZM59.891,41.916C59.988,41.878 60.104,41.882 60.149,41.927C60.193,41.972 60.114,42.004 59.972,41.998C59.815,41.991 59.783,41.959 59.891,41.916L59.891,41.916ZM60.833,41.782C60.93,41.743 61.046,41.748 61.091,41.792C61.136,41.837 61.056,41.869 60.914,41.863C60.758,41.857 60.726,41.825 60.833,41.782L60.833,41.782ZM61.641,41.647C61.738,41.608 61.854,41.613 61.899,41.658C61.944,41.703 61.864,41.734 61.722,41.729C61.565,41.722 61.534,41.69 61.641,41.647L61.641,41.647ZM62.44,41.515C62.533,41.478 62.684,41.478 62.777,41.515C62.87,41.553 62.794,41.583 62.609,41.583C62.424,41.583 62.348,41.553 62.44,41.515ZM63.391,41.378C63.488,41.339 63.605,41.344 63.649,41.388C63.694,41.433 63.615,41.465 63.473,41.459C63.316,41.453 63.284,41.421 63.391,41.378L63.391,41.378ZM64.199,41.243C64.296,41.204 64.412,41.209 64.457,41.254C64.502,41.299 64.422,41.33 64.281,41.325C64.124,41.318 64.092,41.286 64.199,41.243L64.199,41.243ZM65.142,41.109C65.239,41.07 65.355,41.074 65.4,41.119C65.444,41.164 65.365,41.196 65.223,41.19C65.066,41.183 65.034,41.152 65.142,41.109L65.142,41.109ZM65.613,40.03C65.658,39.452 65.759,36.798 65.838,34.132C66.186,22.362 66.259,21.375 66.943,19.332C68.509,14.65 71.678,10.512 75.829,7.726C79.644,5.165 83.831,3.884 88.46,3.86C90.744,3.849 91.795,3.964 93.936,4.462C94.998,4.709 95.154,4.78 95.044,4.966C94.973,5.086 92.747,12.606 90.095,21.677C86.546,33.822 85.321,38.189 85.449,38.238C85.544,38.275 85.004,38.312 84.247,38.319C83.419,38.326 81.828,38.499 80.247,38.752C78.803,38.983 75.046,39.568 71.899,40.053C68.752,40.537 66.031,40.966 65.854,41.007L65.531,41.081L65.613,40.03ZM86.011,38.416C86.108,38.377 86.225,38.382 86.269,38.426C86.314,38.471 86.235,38.503 86.093,38.497C85.936,38.491 85.904,38.459 86.011,38.416L86.011,38.416ZM111.236,29.083C111.236,28.898 111.266,28.822 111.304,28.914C111.341,29.007 111.341,29.158 111.304,29.251C111.266,29.344 111.236,29.268 111.236,29.083ZM111.398,26.659C111.398,25.956 111.42,25.668 111.448,26.02C111.476,26.371 111.476,26.947 111.448,27.299C111.42,27.65 111.398,27.363 111.398,26.659ZM111.236,24.236C111.236,24.05 111.266,23.975 111.304,24.067C111.341,24.16 111.341,24.311 111.304,24.404C111.266,24.496 111.236,24.421 111.236,24.236ZM111.091,23.215C111.097,23.058 111.129,23.026 111.172,23.133C111.211,23.23 111.206,23.347 111.161,23.391C111.117,23.436 111.085,23.357 111.091,23.215L111.091,23.215Z" style="fill:rgb(223,182,38);fill-rule:nonzero;stroke:rgb(226,226,225);stroke-width:7.5px;"></path>
            <path id="path12" d="M123.021,120.079C122.784,119.702 90.184,62.808 89.957,62.375C89.822,62.117 90.052,61.247 91.546,56.361L93.294,50.649L92.728,49.309L94.22,46.172C95.581,43.311 95.692,43.019 95.486,42.857C95.068,42.529 102.523,46.253 103.155,46.688C103.499,46.924 104.014,47.385 104.3,47.713C105.113,48.644 125.41,84.157 126.258,86.132C128.712,91.849 129.337,97.884 128.11,104.016C127.855,105.291 123.441,120.163 123.263,120.348C123.239,120.373 123.13,120.252 123.021,120.079Z" style="fill:rgb(242,156,28);fill-rule:nonzero;stroke:rgb(226,226,225);stroke-width:7.5px;"></path>
            <path id="path11" d="M99.694,44.856C98.07,44.055 94.585,42.331 91.952,41.023C88.48,39.3 86.902,38.587 86.214,38.432L85.266,38.218L85.567,37.185C91.501,16.843 94.975,5.028 95.048,4.947C95.099,4.891 95.561,4.989 96.077,5.164C101.738,7.09 106.29,11.097 108.985,16.528C110.615,19.813 111.342,22.912 111.346,26.592C111.351,31.104 110.552,33.859 108.076,37.865C107.392,38.971 102.784,46.15 102.674,46.28C102.66,46.297 101.319,45.656 99.694,44.856Z" style="fill:rgb(227,149,36);fill-rule:nonzero;stroke:rgb(226,226,225);stroke-width:7.5px;"></path>
            <path id="path10" d="M44.769,129.849C42.779,129.576 41.478,129.192 39.921,128.418C37.945,127.435 36.16,125.925 34.944,124.208C34.004,122.881 15.184,89.942 14.865,89.065C13.921,86.478 14.637,83.461 16.666,81.471C17.642,80.514 18.872,79.815 20.003,79.575C20.813,79.403 42.996,75.938 43.034,75.978C43.243,76.193 47.943,84.994 47.882,85.055C47.835,85.102 42.813,85.824 36.723,86.659C24.76,88.299 24.774,88.297 24.774,88.421C24.774,88.467 26.269,91.132 28.097,94.344C31.281,99.941 31.434,100.182 31.766,100.113C33.261,99.804 50.42,97.357 50.501,97.441C50.647,97.592 55.335,105.877 55.296,105.916C55.279,105.933 51.388,106.706 46.65,107.634C35.77,109.765 36.429,109.634 36.375,109.676C36.328,109.714 41.691,119.025 41.85,119.181C41.9,119.23 47.091,118.43 53.386,117.402C59.68,116.375 65,115.516 65.207,115.495C65.577,115.457 65.628,115.548 68.136,120.749C69.539,123.661 70.687,126.085 70.687,126.135C70.687,126.186 65.461,127.042 59.074,128.037C48.327,129.712 45.957,130.012 44.769,129.849ZM74.261,119.287L71.2,113.361L75.13,96.929C77.292,87.891 79.027,80.463 78.986,80.422C78.944,80.381 73.695,80.999 67.321,81.795C60.947,82.592 55.711,83.221 55.686,83.193C55.57,83.065 51.299,74.856 51.299,74.762C51.299,74.704 58.242,73.573 66.729,72.249C83.582,69.62 83.199,69.662 84.885,70.292C85.988,70.705 87.222,71.586 87.925,72.464C88.306,72.94 88.927,74.074 89.562,75.457L90.584,77.683L86.849,94.752C84.795,104.14 83.124,111.834 83.135,111.85C83.147,111.866 88.545,110.887 95.132,109.674C101.719,108.461 107.425,107.411 107.813,107.34L108.518,107.213L109.352,108.696C110.778,111.233 110.879,111.552 110.87,113.503C110.863,114.995 110.821,115.29 110.504,116.099C109.744,118.04 108.562,119.334 106.721,120.238L105.627,120.776L91.759,122.93C84.131,124.114 77.763,125.113 77.606,125.148C77.352,125.206 76.999,124.587 74.261,119.287Z" style="fill:rgb(219,37,71);fill-rule:nonzero;stroke:rgb(226,226,225);stroke-width:7.5px;"></path>
            <path id="path9" d="M39.021,133.743C39.118,133.704 39.234,133.708 39.279,133.753C39.324,133.798 39.244,133.83 39.102,133.824C38.946,133.818 38.914,133.785 39.021,133.743L39.021,133.743ZM40.771,133.473C40.869,133.434 40.985,133.439 41.029,133.484C41.074,133.529 40.995,133.56 40.853,133.555C40.696,133.549 40.664,133.516 40.771,133.473L40.771,133.473ZM45.08,132.8C45.177,132.761 45.293,132.766 45.338,132.811C45.383,132.855 45.303,132.887 45.161,132.881C45.004,132.875 44.973,132.843 45.08,132.8L45.08,132.8ZM49.389,132.127C49.486,132.088 49.602,132.093 49.647,132.137C49.691,132.182 49.612,132.214 49.47,132.208C49.313,132.202 49.281,132.17 49.388,132.127L49.389,132.127ZM51.139,131.858C51.236,131.819 51.352,131.823 51.397,131.868C51.442,131.913 51.362,131.945 51.22,131.939C51.063,131.933 51.031,131.9 51.139,131.857L51.139,131.858ZM53.697,131.454C53.794,131.415 53.91,131.419 53.955,131.464C54,131.509 53.92,131.541 53.778,131.535C53.622,131.529 53.59,131.496 53.697,131.454L53.697,131.454ZM55.447,131.184C55.545,131.145 55.661,131.15 55.705,131.195C55.75,131.24 55.671,131.272 55.529,131.266C55.372,131.26 55.34,131.227 55.447,131.184L55.447,131.184ZM36.888,127.809C35.834,125.976 34.942,124.416 34.905,124.342C34.868,124.268 35.134,124.54 35.495,124.946C38.263,128.062 41.346,129.588 45.469,129.884L46.788,129.978L43.153,130.553C41.153,130.868 39.357,131.13 39.161,131.134C38.834,131.141 38.642,130.861 36.888,127.809L36.888,127.809ZM58.006,130.78C58.103,130.741 58.219,130.746 58.264,130.791C58.308,130.836 58.229,130.868 58.087,130.862C57.93,130.856 57.898,130.823 58.006,130.78L58.006,130.78ZM59.756,130.511C59.853,130.472 59.969,130.477 60.014,130.522C60.059,130.566 59.979,130.598 59.837,130.592C59.68,130.586 59.649,130.554 59.756,130.511L59.756,130.511ZM62.314,130.107C62.411,130.068 62.527,130.073 62.572,130.118C62.617,130.162 62.537,130.194 62.396,130.188C62.239,130.182 62.207,130.15 62.314,130.107L62.314,130.107ZM47.226,129.841C47.318,129.803 47.47,129.803 47.562,129.841C47.655,129.878 47.579,129.909 47.394,129.909C47.209,129.909 47.133,129.878 47.226,129.841ZM64.065,129.838C64.162,129.799 64.278,129.804 64.323,129.848C64.367,129.893 64.288,129.925 64.146,129.919C63.989,129.913 63.957,129.881 64.065,129.838L64.065,129.838ZM48.311,129.703C48.409,129.664 48.525,129.669 48.569,129.714C48.614,129.758 48.535,129.79 48.393,129.784C48.236,129.778 48.204,129.746 48.311,129.703L48.311,129.703ZM49.119,129.568C49.216,129.529 49.333,129.534 49.377,129.579C49.422,129.624 49.343,129.656 49.201,129.65C49.044,129.644 49.012,129.611 49.119,129.568L49.119,129.568ZM50.062,129.434C50.159,129.395 50.275,129.4 50.32,129.444C50.365,129.489 50.285,129.521 50.143,129.515C49.986,129.509 49.954,129.477 50.062,129.434L50.062,129.434ZM50.87,129.299C50.967,129.26 51.083,129.265 51.128,129.31C51.172,129.354 51.093,129.386 50.951,129.38C50.794,129.374 50.762,129.342 50.87,129.299L50.87,129.299ZM51.812,129.164C51.909,129.126 52.025,129.13 52.07,129.175C52.115,129.22 52.035,129.252 51.893,129.246C51.737,129.24 51.705,129.207 51.812,129.164L51.812,129.164ZM68.373,129.164C68.47,129.126 68.586,129.13 68.631,129.175C68.676,129.22 68.596,129.252 68.454,129.246C68.298,129.24 68.266,129.207 68.373,129.164L68.373,129.164ZM52.62,129.03C52.717,128.991 52.833,128.996 52.878,129.04C52.923,129.085 52.843,129.117 52.701,129.111C52.544,129.105 52.513,129.073 52.62,129.03L52.62,129.03ZM70.123,128.895C70.221,128.856 70.337,128.861 70.381,128.906C70.426,128.95 70.347,128.982 70.205,128.976C70.048,128.97 70.016,128.938 70.123,128.895L70.123,128.895ZM54.37,128.761C54.467,128.722 54.584,128.726 54.628,128.771C54.673,128.816 54.594,128.848 54.452,128.842C54.295,128.836 54.263,128.803 54.37,128.761L54.37,128.761ZM55.178,128.626C55.275,128.587 55.391,128.592 55.436,128.637C55.481,128.681 55.401,128.713 55.259,128.707C55.103,128.701 55.071,128.669 55.178,128.626L55.178,128.626ZM56.121,128.491C56.218,128.452 56.334,128.457 56.379,128.502C56.423,128.547 56.344,128.578 56.202,128.573C56.045,128.567 56.013,128.534 56.121,128.491L56.121,128.491ZM72.682,128.491C72.779,128.452 72.895,128.457 72.94,128.502C72.984,128.547 72.905,128.578 72.763,128.573C72.606,128.567 72.574,128.534 72.682,128.491L72.682,128.491ZM56.928,128.357C57.026,128.318 57.142,128.323 57.187,128.367C57.231,128.412 57.152,128.444 57.01,128.438C56.853,128.432 56.821,128.4 56.928,128.357L56.928,128.357ZM57.871,128.222C57.968,128.183 58.084,128.188 58.129,128.233C58.174,128.277 58.094,128.309 57.952,128.303C57.795,128.297 57.764,128.265 57.871,128.222L57.871,128.222ZM74.432,128.222C74.529,128.183 74.645,128.188 74.69,128.233C74.735,128.277 74.655,128.309 74.513,128.303C74.356,128.297 74.325,128.265 74.432,128.222L74.432,128.222ZM58.679,128.087C58.776,128.048 58.892,128.053 58.937,128.098C58.982,128.143 58.902,128.175 58.76,128.169C58.603,128.163 58.571,128.13 58.679,128.087L58.679,128.087ZM59.487,127.953C59.584,127.914 59.7,127.919 59.745,127.963C59.789,128.008 59.71,128.04 59.568,128.034C59.411,128.028 59.379,127.996 59.487,127.953L59.487,127.953ZM60.429,127.818C60.526,127.779 60.642,127.784 60.687,127.829C60.732,127.873 60.652,127.905 60.511,127.899C60.354,127.893 60.322,127.861 60.429,127.818L60.429,127.818ZM76.99,127.818C77.087,127.779 77.204,127.784 77.248,127.829C77.293,127.873 77.213,127.905 77.072,127.899C76.915,127.893 76.883,127.861 76.99,127.818L76.99,127.818ZM61.237,127.683C61.334,127.645 61.45,127.649 61.495,127.694C61.54,127.739 61.46,127.771 61.318,127.765C61.162,127.759 61.13,127.726 61.237,127.683L61.237,127.683ZM62.18,127.549C62.277,127.51 62.393,127.515 62.438,127.559C62.482,127.604 62.403,127.636 62.261,127.63C62.104,127.624 62.072,127.592 62.18,127.549L62.18,127.549ZM78.741,127.549C78.838,127.51 78.954,127.515 78.999,127.559C79.043,127.604 78.964,127.636 78.822,127.63C78.665,127.624 78.633,127.592 78.741,127.549L78.741,127.549ZM62.987,127.414C63.085,127.375 63.201,127.38 63.245,127.425C63.29,127.47 63.211,127.502 63.069,127.496C62.912,127.49 62.88,127.457 62.987,127.414L62.987,127.414ZM63.795,127.28C63.892,127.241 64.009,127.246 64.053,127.29C64.098,127.335 64.019,127.367 63.877,127.361C63.72,127.355 63.688,127.323 63.795,127.28L63.795,127.28ZM64.738,127.145C64.835,127.106 64.951,127.111 64.996,127.156C65.041,127.2 64.961,127.232 64.819,127.226C64.662,127.22 64.63,127.188 64.738,127.145L64.738,127.145ZM81.299,127.145C81.396,127.106 81.512,127.111 81.557,127.156C81.602,127.2 81.522,127.232 81.38,127.226C81.223,127.22 81.191,127.188 81.299,127.145L81.299,127.145ZM65.546,127.01C65.643,126.972 65.759,126.976 65.804,127.021C65.848,127.066 65.769,127.098 65.627,127.092C65.47,127.086 65.438,127.053 65.546,127.01L65.546,127.01ZM66.488,126.876C66.585,126.837 66.701,126.842 66.746,126.886C66.791,126.931 66.711,126.963 66.569,126.957C66.413,126.951 66.381,126.919 66.488,126.876L66.488,126.876ZM83.049,126.876C83.146,126.837 83.262,126.842 83.307,126.886C83.352,126.931 83.272,126.963 83.13,126.957C82.974,126.951 82.942,126.919 83.049,126.876L83.049,126.876ZM67.296,126.741C67.393,126.702 67.509,126.707 67.554,126.752C67.599,126.796 67.519,126.828 67.377,126.822C67.22,126.816 67.189,126.784 67.296,126.741L67.296,126.741ZM68.104,126.606C68.201,126.568 68.317,126.572 68.362,126.617C68.407,126.662 68.327,126.694 68.185,126.688C68.028,126.682 67.996,126.649 68.104,126.606L68.104,126.606ZM69.046,126.472C69.143,126.433 69.26,126.438 69.304,126.482C69.349,126.527 69.27,126.559 69.128,126.553C68.971,126.547 68.939,126.515 69.046,126.472L69.046,126.472ZM69.854,126.337C69.951,126.298 70.067,126.303 70.112,126.348C70.157,126.392 70.077,126.424 69.935,126.418C69.779,126.412 69.747,126.38 69.854,126.337L69.854,126.337ZM70.695,126.202C70.691,126.115 69.539,123.661 68.136,120.749C65.628,115.548 65.577,115.456 65.207,115.495C65,115.516 59.68,116.375 53.386,117.402C47.091,118.43 41.9,119.23 41.85,119.181C41.747,119.08 36.489,110.02 36.397,109.786C36.363,109.697 36.576,109.598 36.918,109.543C37.237,109.493 37.624,109.42 37.778,109.382C38.024,109.32 38.338,109.796 40.323,113.23C41.568,115.385 42.624,117.168 42.668,117.193C42.713,117.218 48.05,116.372 54.528,115.313C61.007,114.254 66.324,113.404 66.343,113.423C66.458,113.538 71.495,124.071 71.495,124.195C71.495,124.411 70.705,126.395 70.695,126.202ZM87.358,126.203C87.455,126.164 87.571,126.168 87.616,126.213C87.66,126.258 87.581,126.29 87.439,126.284C87.282,126.278 87.25,126.245 87.358,126.203L87.358,126.203ZM89.108,125.933C89.205,125.894 89.321,125.899 89.366,125.944C89.411,125.989 89.331,126.02 89.189,126.015C89.032,126.009 89.001,125.976 89.108,125.933L89.108,125.933ZM91.666,125.529C91.763,125.49 91.88,125.495 91.924,125.54C91.969,125.585 91.889,125.617 91.748,125.611C91.591,125.605 91.559,125.572 91.666,125.529L91.666,125.529ZM93.417,125.26C93.514,125.221 93.63,125.226 93.675,125.271C93.719,125.315 93.64,125.347 93.498,125.341C93.341,125.335 93.309,125.303 93.417,125.26L93.417,125.26ZM77.663,125.125C77.761,125.087 77.877,125.091 77.921,125.136C77.966,125.181 77.887,125.213 77.745,125.207C77.588,125.201 77.556,125.168 77.663,125.125L77.663,125.125ZM78.471,124.991C78.568,124.952 78.685,124.957 78.729,125.001C78.774,125.046 78.695,125.078 78.553,125.072C78.396,125.066 78.364,125.034 78.471,124.991L78.471,124.991ZM79.414,124.856C79.511,124.817 79.627,124.822 79.672,124.867C79.717,124.911 79.637,124.943 79.495,124.937C79.338,124.931 79.306,124.899 79.414,124.856L79.414,124.856ZM95.975,124.856C96.072,124.817 96.188,124.822 96.233,124.867C96.278,124.911 96.198,124.943 96.056,124.937C95.899,124.931 95.867,124.899 95.975,124.856L95.975,124.856ZM80.222,124.721C80.319,124.683 80.435,124.687 80.48,124.732C80.524,124.777 80.445,124.809 80.303,124.803C80.146,124.797 80.114,124.764 80.222,124.721L80.222,124.721ZM81.164,124.587C81.261,124.548 81.377,124.553 81.422,124.597C81.467,124.642 81.387,124.674 81.245,124.668C81.089,124.662 81.057,124.63 81.164,124.587L81.164,124.587ZM97.725,124.587C97.822,124.548 97.938,124.553 97.983,124.597C98.028,124.642 97.948,124.674 97.806,124.668C97.65,124.662 97.618,124.63 97.725,124.587L97.725,124.587ZM81.972,124.452C82.069,124.413 82.185,124.418 82.23,124.463C82.275,124.508 82.195,124.539 82.053,124.534C81.896,124.528 81.865,124.495 81.972,124.452L81.972,124.452ZM82.78,124.318C82.877,124.279 82.993,124.283 83.038,124.328C83.083,124.373 83.003,124.405 82.861,124.399C82.704,124.393 82.672,124.36 82.78,124.317L82.78,124.318ZM83.722,124.183C83.819,124.144 83.936,124.149 83.98,124.194C84.025,124.238 83.946,124.27 83.804,124.264C83.647,124.258 83.615,124.226 83.722,124.183L83.722,124.183ZM100.283,124.183C100.381,124.144 100.497,124.149 100.541,124.194C100.586,124.238 100.507,124.27 100.365,124.264C100.208,124.258 100.176,124.226 100.283,124.183L100.283,124.183ZM84.53,124.048C84.627,124.009 84.743,124.014 84.788,124.059C84.833,124.104 84.753,124.135 84.612,124.13C84.455,124.124 84.423,124.091 84.53,124.048L84.53,124.048ZM85.473,123.914C85.57,123.875 85.686,123.88 85.731,123.924C85.775,123.969 85.696,124.001 85.554,123.995C85.397,123.989 85.365,123.957 85.473,123.914L85.473,123.914ZM102.034,123.914C102.131,123.875 102.247,123.88 102.292,123.924C102.336,123.969 102.257,124.001 102.115,123.995C101.958,123.989 101.926,123.957 102.034,123.914L102.034,123.914ZM86.281,123.779C86.378,123.74 86.494,123.745 86.539,123.79C86.583,123.834 86.504,123.866 86.362,123.86C86.205,123.854 86.173,123.822 86.281,123.779L86.281,123.779ZM87.088,123.644C87.186,123.605 87.302,123.61 87.346,123.655C87.391,123.7 87.312,123.732 87.17,123.726C87.013,123.72 86.981,123.687 87.088,123.644L87.088,123.644ZM88.031,123.51C88.128,123.471 88.244,123.476 88.289,123.52C88.334,123.565 88.254,123.597 88.112,123.591C87.955,123.585 87.923,123.553 88.031,123.51L88.031,123.51ZM88.839,123.375C88.936,123.336 89.052,123.341 89.097,123.386C89.142,123.43 89.062,123.462 88.92,123.456C88.763,123.45 88.731,123.418 88.839,123.375L88.839,123.375ZM89.781,123.24C89.878,123.202 89.995,123.206 90.039,123.251C90.084,123.296 90.004,123.328 89.863,123.322C89.706,123.316 89.674,123.283 89.781,123.24L89.781,123.24ZM106.342,123.24C106.439,123.202 106.556,123.206 106.6,123.251C106.645,123.296 106.565,123.328 106.424,123.322C106.267,123.316 106.235,123.283 106.342,123.24L106.342,123.24ZM90.589,123.106C90.686,123.067 90.802,123.072 90.847,123.116C90.892,123.161 90.812,123.193 90.67,123.187C90.514,123.181 90.482,123.149 90.589,123.106L90.589,123.106ZM91.397,122.971C91.494,122.932 91.61,122.937 91.655,122.982C91.7,123.026 91.62,123.058 91.478,123.052C91.321,123.046 91.29,123.014 91.397,122.971L91.397,122.971ZM92.339,122.836C92.437,122.798 92.553,122.802 92.597,122.847C92.642,122.892 92.563,122.924 92.421,122.918C92.264,122.912 92.232,122.879 92.339,122.836L92.339,122.836ZM93.147,122.702C93.244,122.663 93.361,122.668 93.405,122.712C93.45,122.757 93.371,122.789 93.229,122.783C93.072,122.777 93.04,122.745 93.147,122.702L93.147,122.702ZM94.09,122.567C94.187,122.528 94.303,122.533 94.348,122.578C94.393,122.622 94.313,122.654 94.171,122.648C94.014,122.642 93.982,122.61 94.09,122.567L94.09,122.567ZM110.651,122.567C110.748,122.528 110.864,122.533 110.909,122.578C110.954,122.622 110.874,122.654 110.732,122.648C110.575,122.642 110.543,122.61 110.651,122.567L110.651,122.567ZM94.898,122.433C94.995,122.394 95.111,122.398 95.156,122.443C95.2,122.488 95.121,122.52 94.979,122.514C94.822,122.508 94.79,122.475 94.898,122.432L94.898,122.433ZM112.401,122.298C112.498,122.259 112.614,122.264 112.659,122.309C112.704,122.353 112.624,122.385 112.482,122.379C112.326,122.373 112.294,122.341 112.401,122.298L112.401,122.298ZM96.648,122.163C96.745,122.124 96.861,122.129 96.906,122.174C96.951,122.219 96.871,122.25 96.729,122.245C96.572,122.239 96.541,122.206 96.648,122.163L96.648,122.163ZM97.456,122.029C97.553,121.99 97.669,121.995 97.714,122.039C97.759,122.084 97.679,122.116 97.537,122.11C97.38,122.104 97.348,122.072 97.456,122.029L97.456,122.029ZM98.398,121.894C98.496,121.855 98.612,121.86 98.656,121.905C98.701,121.949 98.622,121.981 98.48,121.975C98.323,121.969 98.291,121.937 98.398,121.894L98.398,121.894ZM114.959,121.894C115.057,121.855 115.173,121.86 115.217,121.905C115.262,121.949 115.183,121.981 115.041,121.975C114.884,121.969 114.852,121.937 114.959,121.894L114.959,121.894ZM99.206,121.759C99.303,121.72 99.419,121.725 99.464,121.77C99.509,121.815 99.429,121.847 99.288,121.841C99.131,121.835 99.099,121.802 99.206,121.759L99.206,121.759ZM100.149,121.625C100.246,121.586 100.362,121.591 100.407,121.635C100.451,121.68 100.372,121.712 100.23,121.706C100.073,121.7 100.041,121.668 100.149,121.625L100.149,121.625ZM116.71,121.625C116.807,121.586 116.923,121.591 116.968,121.635C117.012,121.68 116.933,121.712 116.791,121.706C116.634,121.7 116.602,121.668 116.71,121.625L116.71,121.625ZM100.957,121.49C101.054,121.451 101.17,121.456 101.215,121.501C101.259,121.545 101.18,121.577 101.038,121.571C100.881,121.565 100.849,121.533 100.957,121.49L100.957,121.49ZM101.764,121.355C101.862,121.317 101.978,121.321 102.022,121.366C102.067,121.411 101.988,121.443 101.846,121.437C101.689,121.431 101.657,121.398 101.764,121.355L101.764,121.355ZM102.707,121.221C102.804,121.182 102.92,121.187 102.965,121.231C103.01,121.276 102.93,121.308 102.788,121.302C102.631,121.296 102.599,121.264 102.707,121.221L102.707,121.221ZM119.268,121.221C119.365,121.182 119.481,121.187 119.526,121.231C119.571,121.276 119.491,121.308 119.349,121.302C119.192,121.296 119.16,121.264 119.268,121.221L119.268,121.221ZM103.515,121.086C103.612,121.047 103.728,121.052 103.773,121.097C103.818,121.141 103.738,121.173 103.596,121.167C103.439,121.161 103.407,121.129 103.515,121.086L103.515,121.086ZM104.457,120.951C104.554,120.913 104.671,120.917 104.715,120.962C104.76,121.007 104.68,121.039 104.539,121.033C104.382,121.027 104.35,120.994 104.457,120.951L104.457,120.951ZM121.018,120.951C121.115,120.913 121.232,120.917 121.276,120.962C121.321,121.007 121.242,121.039 121.1,121.033C120.943,121.027 120.911,120.994 121.018,120.951L121.018,120.951ZM106.744,120.233C108.578,119.315 109.748,118.029 110.504,116.099C110.821,115.29 110.863,114.995 110.87,113.503C110.879,111.552 110.778,111.233 109.352,108.696L108.518,107.213L107.813,107.34C107.425,107.411 101.719,108.461 95.132,109.674C88.545,110.887 83.147,111.866 83.135,111.85C83.124,111.834 84.795,104.14 86.849,94.752L90.584,77.683L89.562,75.457C88.927,74.074 88.306,72.94 87.925,72.464C87.222,71.586 85.988,70.705 84.885,70.292C83.199,69.661 83.578,69.621 66.762,72.241C58.294,73.56 51.322,74.705 51.267,74.784C51.071,75.07 51.171,74.7 51.565,73.678L51.966,72.639L69.506,69.908C79.153,68.406 87.145,67.18 87.265,67.182C87.485,67.187 87.597,67.415 90.246,73.217L91.37,75.68L87.639,92.74C85.587,102.124 83.918,109.811 83.929,109.823C83.94,109.836 89.645,108.797 96.606,107.515C103.567,106.233 109.272,105.193 109.284,105.204C109.296,105.214 110.855,107.923 112.749,111.224L116.192,117.224L115.839,118.158C115.644,118.671 115.448,119.134 115.403,119.185C115.342,119.256 106.1,120.774 105.732,120.774C105.694,120.774 106.149,120.531 106.744,120.233ZM38.348,109.238C38.445,109.199 38.561,109.204 38.606,109.248C38.651,109.293 38.571,109.325 38.429,109.319C38.272,109.313 38.24,109.281 38.348,109.238L38.348,109.238ZM43.195,108.295C43.292,108.256 43.408,108.261 43.453,108.306C43.498,108.35 43.418,108.382 43.276,108.376C43.119,108.37 43.088,108.338 43.195,108.295L43.195,108.295ZM43.868,108.16C43.965,108.122 44.081,108.126 44.126,108.171C44.171,108.216 44.091,108.248 43.95,108.242C43.793,108.236 43.761,108.203 43.868,108.16L43.868,108.16ZM48.715,107.218C48.812,107.179 48.929,107.184 48.973,107.229C49.018,107.273 48.939,107.305 48.797,107.299C48.64,107.293 48.608,107.261 48.715,107.218L48.715,107.218ZM49.389,107.083C49.486,107.044 49.602,107.049 49.647,107.094C49.691,107.139 49.612,107.171 49.47,107.165C49.313,107.159 49.281,107.126 49.388,107.083L49.389,107.083ZM54.236,106.141C54.333,106.102 54.449,106.107 54.494,106.151C54.538,106.196 54.459,106.228 54.317,106.222C54.16,106.216 54.128,106.184 54.236,106.141L54.236,106.141ZM54.909,106.006C55.006,105.967 55.122,105.972 55.167,106.017C55.212,106.061 55.132,106.093 54.99,106.087C54.833,106.081 54.801,106.049 54.909,106.006L54.909,106.006ZM52.992,101.78C51.739,99.557 50.646,97.646 50.564,97.534C50.433,97.355 49.311,97.494 41.264,98.686C36.23,99.432 31.956,100.074 31.766,100.113C31.434,100.182 31.281,99.941 28.081,94.316C26.244,91.088 24.771,88.418 24.807,88.382C24.878,88.312 26.423,88.042 26.468,88.093C26.483,88.11 27.779,90.38 29.349,93.138C31.895,97.611 32.235,98.146 32.495,98.087C32.865,98.004 50.928,95.327 51.124,95.327C51.204,95.327 52.367,97.26 53.709,99.622L56.147,103.918L55.777,104.873C55.573,105.399 55.376,105.827 55.339,105.825C55.301,105.823 54.245,104.003 52.992,101.78ZM12.482,85.25L10.102,81.105L10.456,80.171C10.65,79.657 10.849,79.192 10.897,79.137C10.981,79.041 43.769,73.878 43.831,73.951C43.847,73.97 44.964,76.01 46.313,78.483C48.274,82.077 48.752,83.053 48.694,83.343C48.567,83.977 47.954,85.229 47.772,85.227C47.637,85.225 47.641,85.196 47.786,85.104C47.936,85.009 47.47,84.062 45.518,80.495C44.167,78.026 43.049,75.993 43.034,75.978C42.996,75.938 20.813,79.403 20.003,79.575C18.872,79.815 17.642,80.514 16.666,81.471C14.74,83.36 13.935,86.438 14.758,88.77C14.862,89.067 14.929,89.329 14.905,89.353C14.882,89.376 13.791,87.53 12.482,85.25L12.482,85.25ZM27.173,87.964C27.27,87.925 27.386,87.93 27.431,87.975C27.475,88.019 27.396,88.051 27.254,88.045C27.097,88.039 27.065,88.007 27.173,87.964L27.173,87.964ZM28.107,87.832C28.199,87.795 28.351,87.795 28.443,87.832C28.536,87.87 28.46,87.9 28.275,87.9C28.09,87.9 28.014,87.87 28.107,87.832ZM29.049,87.698C29.142,87.66 29.293,87.66 29.386,87.698C29.478,87.735 29.403,87.766 29.217,87.766C29.032,87.766 28.957,87.735 29.049,87.698ZM30.135,87.56C30.232,87.521 30.348,87.526 30.393,87.571C30.437,87.616 30.358,87.647 30.216,87.642C30.059,87.635 30.027,87.603 30.135,87.56L30.135,87.56ZM31.077,87.426C31.174,87.387 31.29,87.391 31.335,87.436C31.38,87.481 31.3,87.513 31.158,87.507C31.002,87.5 30.97,87.469 31.077,87.426L31.077,87.426ZM32.011,87.294C32.104,87.256 32.255,87.256 32.348,87.294C32.44,87.331 32.365,87.362 32.18,87.362C31.994,87.362 31.919,87.331 32.011,87.294ZM33.097,87.156C33.194,87.117 33.31,87.122 33.355,87.167C33.4,87.212 33.32,87.243 33.178,87.238C33.021,87.231 32.989,87.199 33.097,87.156L33.097,87.156ZM34.039,87.022C34.136,86.983 34.253,86.988 34.297,87.032C34.342,87.077 34.263,87.109 34.121,87.103C33.964,87.096 33.932,87.065 34.039,87.022L34.039,87.022ZM34.973,86.89C35.066,86.852 35.217,86.852 35.31,86.89C35.403,86.927 35.327,86.958 35.142,86.958C34.957,86.958 34.881,86.927 34.973,86.89ZM35.916,86.755C36.008,86.718 36.16,86.718 36.252,86.755C36.345,86.792 36.269,86.823 36.084,86.823C35.899,86.823 35.823,86.792 35.916,86.755ZM37.001,86.618C37.099,86.579 37.215,86.584 37.259,86.628C37.304,86.673 37.225,86.705 37.083,86.699C36.926,86.693 36.894,86.661 37.001,86.618L37.001,86.618ZM37.944,86.483C38.041,86.444 38.157,86.449 38.202,86.494C38.247,86.538 38.167,86.57 38.025,86.564C37.868,86.558 37.836,86.526 37.944,86.483L37.944,86.483ZM38.878,86.351C38.971,86.314 39.122,86.314 39.215,86.351C39.307,86.389 39.231,86.419 39.046,86.419C38.861,86.419 38.785,86.389 38.878,86.351ZM39.964,86.214C40.061,86.175 40.177,86.18 40.222,86.224C40.266,86.269 40.187,86.301 40.045,86.295C39.888,86.289 39.856,86.257 39.964,86.214L39.964,86.214ZM40.906,86.079C41.003,86.04 41.119,86.045 41.164,86.09C41.209,86.134 41.129,86.166 40.987,86.16C40.831,86.154 40.799,86.122 40.906,86.079L40.906,86.079ZM41.84,85.947C41.933,85.91 42.084,85.91 42.177,85.947C42.269,85.985 42.194,86.015 42.008,86.015C41.823,86.015 41.748,85.985 41.84,85.947ZM42.783,85.813C42.875,85.775 43.027,85.775 43.119,85.813C43.212,85.85 43.136,85.881 42.951,85.881C42.766,85.881 42.69,85.85 42.783,85.813ZM43.868,85.675C43.965,85.636 44.081,85.641 44.126,85.686C44.171,85.731 44.091,85.762 43.95,85.757C43.793,85.75 43.761,85.718 43.868,85.675L43.868,85.675ZM44.811,85.541C44.908,85.502 45.024,85.506 45.069,85.551C45.113,85.596 45.034,85.628 44.892,85.622C44.735,85.615 44.703,85.584 44.811,85.541L44.811,85.541ZM45.745,85.409C45.837,85.371 45.989,85.371 46.081,85.409C46.174,85.446 46.098,85.477 45.913,85.477C45.728,85.477 45.652,85.446 45.745,85.409ZM46.83,85.271C46.927,85.232 47.044,85.237 47.088,85.282C47.133,85.327 47.054,85.358 46.912,85.353C46.755,85.346 46.723,85.314 46.83,85.271L46.83,85.271ZM55.717,83.252C55.814,83.213 55.93,83.218 55.975,83.262C56.019,83.307 55.94,83.339 55.798,83.333C55.641,83.326 55.609,83.295 55.717,83.252L55.717,83.252ZM56.651,83.12C56.743,83.082 56.895,83.082 56.987,83.12C57.08,83.157 57.004,83.188 56.819,83.188C56.634,83.188 56.558,83.157 56.651,83.12ZM57.728,82.985C57.82,82.948 57.972,82.948 58.065,82.985C58.157,83.023 58.081,83.053 57.896,83.053C57.711,83.053 57.635,83.023 57.728,82.985ZM58.805,82.851C58.898,82.813 59.049,82.813 59.142,82.851C59.234,82.888 59.158,82.918 58.973,82.918C58.788,82.918 58.712,82.888 58.805,82.851ZM59.882,82.716C59.975,82.679 60.126,82.679 60.219,82.716C60.311,82.753 60.236,82.784 60.05,82.784C59.865,82.784 59.79,82.753 59.882,82.716ZM60.959,82.581C61.052,82.544 61.203,82.544 61.296,82.581C61.389,82.619 61.313,82.649 61.128,82.649C60.942,82.649 60.867,82.619 60.959,82.581ZM62.036,82.447C62.129,82.409 62.281,82.409 62.373,82.447C62.466,82.484 62.39,82.514 62.205,82.514C62.02,82.514 61.944,82.484 62.036,82.447ZM63.114,82.312C63.206,82.275 63.358,82.275 63.45,82.312C63.543,82.349 63.467,82.38 63.282,82.38C63.097,82.38 63.021,82.349 63.114,82.312ZM64.191,82.177C64.283,82.14 64.435,82.14 64.527,82.177C64.62,82.215 64.544,82.245 64.359,82.245C64.174,82.245 64.098,82.215 64.191,82.177ZM65.268,82.043C65.36,82.005 65.512,82.005 65.604,82.043C65.697,82.08 65.621,82.111 65.436,82.111C65.251,82.111 65.175,82.08 65.268,82.043ZM66.345,81.908C66.438,81.871 66.589,81.871 66.682,81.908C66.774,81.945 66.698,81.976 66.513,81.976C66.328,81.976 66.252,81.945 66.345,81.908ZM67.422,81.773C67.515,81.736 67.666,81.736 67.759,81.773C67.851,81.811 67.776,81.841 67.59,81.841C67.405,81.841 67.33,81.811 67.422,81.773ZM68.499,81.639C68.592,81.601 68.743,81.601 68.836,81.639C68.928,81.676 68.853,81.707 68.668,81.707C68.482,81.707 68.407,81.676 68.499,81.639ZM69.576,81.504C69.669,81.467 69.82,81.467 69.913,81.504C70.006,81.541 69.93,81.572 69.745,81.572C69.56,81.572 69.484,81.541 69.576,81.504ZM70.654,81.369C70.746,81.332 70.898,81.332 70.99,81.369C71.083,81.407 71.007,81.437 70.822,81.437C70.637,81.437 70.561,81.407 70.654,81.369ZM71.731,81.235C71.823,81.197 71.975,81.197 72.067,81.235C72.16,81.272 72.084,81.303 71.899,81.303C71.714,81.303 71.638,81.272 71.731,81.235ZM72.808,81.1C72.9,81.063 73.052,81.063 73.144,81.1C73.237,81.138 73.161,81.168 72.976,81.168C72.791,81.168 72.715,81.138 72.808,81.1ZM73.885,80.966C73.978,80.928 74.129,80.928 74.222,80.966C74.314,81.003 74.238,81.033 74.053,81.033C73.868,81.033 73.792,81.003 73.885,80.966ZM74.962,80.831C75.055,80.794 75.206,80.794 75.299,80.831C75.391,80.868 75.316,80.899 75.13,80.899C74.945,80.899 74.87,80.868 74.962,80.831ZM76.039,80.696C76.132,80.659 76.283,80.659 76.376,80.696C76.468,80.734 76.393,80.764 76.208,80.764C76.022,80.764 75.947,80.734 76.039,80.696ZM77.116,80.562C77.209,80.524 77.36,80.524 77.453,80.562C77.546,80.599 77.47,80.63 77.285,80.63C77.1,80.63 77.024,80.599 77.116,80.562ZM78.194,80.427C78.286,80.39 78.438,80.39 78.53,80.427C78.623,80.464 78.547,80.495 78.362,80.495C78.177,80.495 78.101,80.464 78.194,80.427ZM8.592,74.904C8.689,74.865 8.805,74.87 8.85,74.914C8.895,74.959 8.815,74.991 8.673,74.985C8.516,74.979 8.484,74.947 8.592,74.904ZM9.4,74.769C9.497,74.73 9.613,74.735 9.658,74.78C9.703,74.825 9.623,74.856 9.481,74.851C9.324,74.844 9.292,74.812 9.4,74.769ZM11.15,74.5C11.247,74.461 11.363,74.466 11.408,74.511C11.453,74.555 11.373,74.587 11.231,74.581C11.075,74.575 11.043,74.543 11.15,74.5L11.15,74.5ZM12.9,74.231C12.998,74.192 13.114,74.196 13.158,74.241C13.203,74.286 13.124,74.318 12.982,74.312C12.825,74.305 12.793,74.274 12.9,74.231L12.9,74.231ZM13.708,74.096C13.805,74.057 13.922,74.062 13.966,74.107C14.011,74.151 13.932,74.183 13.79,74.177C13.633,74.171 13.601,74.139 13.708,74.096L13.708,74.096ZM15.459,73.827C15.556,73.788 15.672,73.793 15.717,73.837C15.761,73.882 15.682,73.914 15.54,73.908C15.383,73.902 15.351,73.87 15.459,73.827L15.459,73.827ZM17.209,73.557C17.306,73.518 17.422,73.523 17.467,73.568C17.512,73.613 17.432,73.645 17.29,73.639C17.133,73.632 17.102,73.6 17.209,73.557L17.209,73.557ZM18.017,73.423C18.114,73.384 18.23,73.389 18.275,73.433C18.32,73.478 18.24,73.51 18.098,73.504C17.941,73.498 17.909,73.466 18.017,73.423L18.017,73.423ZM19.767,73.153C19.864,73.115 19.981,73.119 20.025,73.164C20.07,73.209 19.99,73.241 19.849,73.235C19.692,73.228 19.66,73.196 19.767,73.153L19.767,73.153ZM21.518,72.884C21.615,72.845 21.731,72.85 21.776,72.895C21.82,72.94 21.741,72.971 21.599,72.966C21.442,72.959 21.41,72.927 21.518,72.884L21.518,72.884ZM22.325,72.75C22.423,72.711 22.539,72.715 22.583,72.76C22.628,72.805 22.549,72.837 22.407,72.831C22.25,72.824 22.218,72.793 22.325,72.75L22.325,72.75ZM24.076,72.48C24.173,72.441 24.289,72.446 24.334,72.491C24.379,72.536 24.299,72.567 24.157,72.562C24,72.555 23.968,72.523 24.076,72.48L24.076,72.48ZM25.826,72.211C25.923,72.172 26.039,72.177 26.084,72.222C26.129,72.266 26.049,72.298 25.907,72.292C25.751,72.286 25.719,72.254 25.826,72.211L25.826,72.211ZM27.576,71.942C27.674,71.903 27.79,71.908 27.835,71.952C27.879,71.997 27.8,72.029 27.658,72.023C27.501,72.017 27.469,71.985 27.576,71.942L27.576,71.942ZM28.384,71.807C28.481,71.768 28.598,71.773 28.642,71.818C28.687,71.862 28.608,71.894 28.466,71.888C28.309,71.882 28.277,71.85 28.384,71.807L28.384,71.807ZM30.135,71.538C30.232,71.499 30.348,71.504 30.393,71.548C30.437,71.593 30.358,71.625 30.216,71.619C30.059,71.613 30.027,71.581 30.135,71.538L30.135,71.538ZM31.885,71.268C31.982,71.23 32.098,71.234 32.143,71.279C32.188,71.324 32.108,71.356 31.966,71.35C31.809,71.343 31.778,71.311 31.885,71.268L31.885,71.268ZM32.693,71.134C32.79,71.095 32.906,71.1 32.951,71.144C32.996,71.189 32.916,71.221 32.774,71.215C32.617,71.209 32.585,71.177 32.693,71.134L32.693,71.134ZM34.443,70.865C34.54,70.826 34.657,70.83 34.701,70.875C34.746,70.92 34.666,70.952 34.525,70.946C34.368,70.939 34.336,70.908 34.443,70.865L34.443,70.865ZM36.194,70.595C36.291,70.556 36.407,70.561 36.452,70.606C36.496,70.651 36.417,70.682 36.275,70.677C36.118,70.67 36.086,70.638 36.194,70.595L36.194,70.595ZM37.001,70.461C37.099,70.422 37.215,70.427 37.259,70.471C37.304,70.516 37.225,70.548 37.083,70.542C36.926,70.535 36.894,70.504 37.001,70.461L37.001,70.461ZM38.752,70.191C38.849,70.152 38.965,70.157 39.01,70.202C39.055,70.247 38.975,70.279 38.833,70.273C38.676,70.266 38.644,70.234 38.752,70.191L38.752,70.191ZM40.502,69.922C40.599,69.883 40.715,69.888 40.76,69.933C40.805,69.977 40.725,70.009 40.583,70.003C40.427,69.997 40.395,69.965 40.502,69.922L40.502,69.922ZM41.31,69.787C41.407,69.749 41.523,69.753 41.568,69.798C41.613,69.843 41.533,69.875 41.391,69.869C41.234,69.862 41.203,69.83 41.31,69.787L41.31,69.787ZM43.06,69.518C43.157,69.479 43.274,69.484 43.318,69.529C43.363,69.573 43.284,69.605 43.142,69.599C42.985,69.593 42.953,69.561 43.06,69.518L43.06,69.518ZM44.811,69.249C44.908,69.21 45.024,69.215 45.069,69.259C45.113,69.304 45.034,69.336 44.892,69.33C44.735,69.324 44.703,69.292 44.811,69.249L44.811,69.249ZM45.619,69.114C45.716,69.075 45.832,69.08 45.877,69.125C45.921,69.17 45.842,69.201 45.7,69.196C45.543,69.189 45.511,69.157 45.619,69.114L45.619,69.114ZM46.561,68.98C46.658,68.941 46.774,68.945 46.819,68.99C46.864,69.035 46.784,69.067 46.642,69.061C46.486,69.054 46.454,69.023 46.561,68.98L46.561,68.98ZM47.369,68.845C47.466,68.806 47.582,68.811 47.627,68.856C47.672,68.9 47.592,68.932 47.45,68.926C47.293,68.92 47.261,68.888 47.369,68.845L47.369,68.845ZM49.119,68.576C49.216,68.537 49.333,68.542 49.377,68.586C49.422,68.631 49.343,68.663 49.201,68.657C49.044,68.65 49.012,68.619 49.119,68.576L49.119,68.576ZM50.87,68.306C50.967,68.267 51.083,68.272 51.128,68.317C51.172,68.362 51.093,68.394 50.951,68.388C50.794,68.381 50.762,68.349 50.87,68.306L50.87,68.306ZM51.677,68.172C51.775,68.133 51.891,68.138 51.935,68.182C51.98,68.227 51.901,68.259 51.759,68.253C51.602,68.247 51.57,68.215 51.677,68.172L51.677,68.172ZM53.428,67.902C53.525,67.864 53.641,67.868 53.686,67.913C53.731,67.958 53.651,67.99 53.509,67.984C53.352,67.977 53.32,67.945 53.428,67.902L53.428,67.902ZM55.178,67.633C55.275,67.594 55.391,67.599 55.436,67.644C55.481,67.688 55.401,67.72 55.259,67.714C55.103,67.708 55.071,67.676 55.178,67.633L55.178,67.633ZM55.986,67.498C56.083,67.46 56.199,67.464 56.244,67.509C56.289,67.554 56.209,67.586 56.067,67.58C55.91,67.573 55.879,67.541 55.986,67.498L55.986,67.498ZM57.736,67.229C57.834,67.19 57.95,67.195 57.994,67.24C58.039,67.285 57.96,67.316 57.818,67.311C57.661,67.304 57.629,67.272 57.736,67.229L57.736,67.229ZM59.487,66.96C59.584,66.921 59.7,66.926 59.745,66.971C59.789,67.015 59.71,67.047 59.568,67.041C59.411,67.035 59.379,67.003 59.487,66.96L59.487,66.96ZM60.295,66.825C60.392,66.786 60.508,66.791 60.553,66.836C60.597,66.881 60.518,66.912 60.376,66.907C60.219,66.9 60.187,66.868 60.295,66.825L60.295,66.825ZM75.778,64.402C75.876,64.363 75.992,64.368 76.036,64.412C76.081,64.457 76.002,64.489 75.86,64.483C75.703,64.477 75.671,64.445 75.778,64.402L75.778,64.402ZM80.087,63.728C80.184,63.69 80.3,63.694 80.345,63.739C80.39,63.784 80.31,63.816 80.168,63.81C80.011,63.803 79.98,63.771 80.087,63.728L80.087,63.728ZM89.672,62.339C89.55,62.261 89.534,62.208 89.63,62.207C89.718,62.206 89.828,62.265 89.874,62.339C89.977,62.507 89.93,62.507 89.672,62.339L89.672,62.339Z" style="fill:rgb(140,31,94);fill-rule:nonzero;stroke:rgb(226,226,225);stroke-width:7.5px;"></path>
            <path id="path8" d="M20.56,104.866C11.392,88.865 3.913,75.75 3.94,75.723C3.967,75.696 4.985,75.52 6.202,75.332C7.419,75.143 8.991,74.898 9.694,74.786C11.137,74.556 11.699,74.468 14.743,73.998C15.928,73.814 17.867,73.513 19.052,73.328C20.237,73.143 22.206,72.836 23.428,72.645C27.071,72.077 27.211,72.055 28.612,71.833C30.158,71.588 30.761,71.494 33.728,71.036C34.913,70.852 36.852,70.551 38.036,70.366C40.077,70.047 41.545,69.818 46.721,69.012C47.943,68.821 49.306,68.607 49.75,68.536C50.195,68.465 51.528,68.257 52.712,68.073C55.521,67.639 58.476,67.175 62.137,66.594C74.462,64.636 89.574,62.325 89.71,62.377C89.8,62.412 91.307,64.948 93.059,68.012C96.157,73.428 98.713,77.889 105.895,90.412C107.806,93.745 110.655,98.713 112.226,101.453C114.953,106.21 119.685,114.458 122.071,118.614C122.685,119.684 123.17,120.577 123.149,120.599C123.092,120.656 37.725,133.97 37.455,133.964C37.297,133.96 32.194,125.172 20.56,104.866ZM43.727,130.465C52.02,129.193 70.755,126.272 70.768,126.25C70.847,126.124 71.496,124.304 71.498,124.205C71.499,124.132 70.338,121.662 68.916,118.715C66.401,113.5 66.323,113.36 65.985,113.431C65.479,113.537 43.494,117.111 43.028,117.163C42.643,117.205 42.579,117.113 40.373,113.309C39.129,111.165 38.126,109.397 38.144,109.379C38.162,109.362 41.962,108.614 46.589,107.717C51.216,106.82 55.085,106.042 55.186,105.987C55.288,105.933 55.547,105.446 55.761,104.906L56.151,103.924L53.71,99.625C52.368,97.261 51.204,95.327 51.124,95.327C50.928,95.327 32.865,98.004 32.495,98.087C32.235,98.146 31.896,97.613 29.357,93.156C27.792,90.408 26.529,88.147 26.551,88.131C26.574,88.115 31.378,87.448 37.229,86.65C43.079,85.851 47.904,85.175 47.952,85.147C48.075,85.074 48.741,83.379 48.741,83.137C48.741,82.989 44.046,74.206 43.831,73.951C43.769,73.878 10.981,79.041 10.897,79.137C10.849,79.192 10.65,79.657 10.456,80.17L10.102,81.104L12.648,85.556C18.477,95.75 34.197,123.164 36.414,127.001C38.233,130.151 38.867,131.142 39.062,131.142C39.204,131.142 41.303,130.837 43.727,130.465ZM91.236,123.07C112.005,119.819 115.314,119.287 115.403,119.185C115.448,119.133 115.644,118.671 115.839,118.158L116.192,117.224L112.749,111.224C110.855,107.923 109.296,105.214 109.284,105.204C109.272,105.193 103.567,106.233 96.606,107.515C89.645,108.797 83.94,109.836 83.929,109.823C83.918,109.811 85.587,102.124 87.639,92.74L91.37,75.68L90.246,73.217C87.597,67.415 87.485,67.187 87.265,67.182C87.145,67.18 79.153,68.406 69.506,69.908L51.966,72.639L51.157,74.735L53.4,79.006C54.634,81.355 55.65,83.286 55.659,83.298C55.668,83.31 60.916,82.664 67.321,81.863C73.727,81.061 78.978,80.415 78.991,80.428C79.003,80.44 77.258,87.781 75.112,96.741C72.966,105.701 71.202,113.123 71.192,113.235C71.182,113.346 72.405,115.83 73.909,118.755C76.963,124.691 77.248,125.217 77.408,125.217C77.469,125.217 83.692,124.251 91.236,123.07Z" style="fill:rgb(57,35,89);fill-rule:nonzero;stroke:rgb(226,226,225);stroke-width:7.5px;"></path>
        </g>
    </g>
    <g id="g11" xmlns:www.serif.com="http://www.serif.com/" www.serif.com:id="g1">
        <g id="g81" www.serif.com:id="g8">
            <path id="path141" www.serif.com:id="path14" d="M4.042,75.164C4.11,74.96 4.986,72.098 5.988,68.802C8.282,61.264 8.603,60.426 10.171,57.905C11.691,55.462 14.021,52.99 16.433,51.263C18.566,49.736 21.747,48.285 24.457,47.602C24.913,47.488 34.365,45.97 45.462,44.229C56.559,42.488 68.304,40.642 71.562,40.127C74.821,39.612 78.729,38.995 80.247,38.755C84.621,38.065 86.31,38.195 88.615,39.397C89.233,39.72 91.087,40.649 92.735,41.463L95.731,42.942L95.411,43.653C95.235,44.045 94.56,45.477 93.909,46.836L92.727,49.307L93.294,50.649L91.537,56.393C90.571,59.552 89.767,62.152 89.749,62.171C89.707,62.215 4.348,75.534 4.106,75.534C3.961,75.534 3.947,75.45 4.042,75.164L4.042,75.164Z" style="fill:rgb(238,194,22);fill-rule:nonzero;"></path>
            <path id="path131" www.serif.com:id="path13" d="M128.19,103.596C128.196,103.439 128.229,103.407 128.271,103.515C128.31,103.612 128.306,103.728 128.261,103.773C128.216,103.817 128.184,103.738 128.19,103.596L128.19,103.596ZM128.325,102.788C128.331,102.631 128.363,102.599 128.406,102.707C128.445,102.804 128.44,102.92 128.395,102.965C128.351,103.01 128.319,102.93 128.325,102.788L128.325,102.788ZM128.47,101.924C128.47,101.739 128.501,101.663 128.538,101.756C128.575,101.849 128.575,102 128.538,102.093C128.501,102.185 128.47,102.109 128.47,101.924ZM128.61,100.645C128.613,100.423 128.643,100.348 128.677,100.479C128.711,100.61 128.709,100.792 128.672,100.883C128.635,100.975 128.607,100.867 128.61,100.645ZM128.762,98.087C128.763,97.569 128.787,97.373 128.816,97.652C128.845,97.932 128.845,98.356 128.815,98.595C128.786,98.834 128.762,98.605 128.762,98.087L128.762,98.087ZM128.615,95.461C128.615,95.202 128.642,95.096 128.676,95.226C128.71,95.355 128.71,95.567 128.676,95.697C128.642,95.827 128.615,95.721 128.615,95.461ZM128.459,94.171C128.465,94.014 128.498,93.982 128.541,94.09C128.58,94.187 128.575,94.303 128.53,94.348C128.485,94.393 128.454,94.313 128.459,94.171L128.459,94.171ZM128.325,93.229C128.331,93.072 128.363,93.04 128.406,93.147C128.445,93.244 128.44,93.361 128.396,93.405C128.351,93.45 128.319,93.371 128.325,93.229L128.325,93.229ZM9.964,58.031C10.043,57.883 10.138,57.762 10.175,57.762C10.212,57.762 10.177,57.883 10.098,58.031C10.019,58.179 9.924,58.3 9.887,58.3C9.85,58.3 9.884,58.179 9.964,58.031L9.964,58.031ZM10.771,56.768C10.771,56.74 10.877,56.634 11.007,56.533C11.221,56.365 11.225,56.37 11.058,56.583C10.882,56.808 10.771,56.879 10.771,56.768L10.771,56.768ZM11.175,56.23C11.175,56.202 11.281,56.096 11.411,55.994C11.624,55.827 11.629,55.831 11.462,56.045C11.286,56.269 11.175,56.34 11.175,56.23L11.175,56.23ZM11.849,55.405C12.022,55.22 12.195,55.069 12.232,55.069C12.269,55.069 12.157,55.22 11.983,55.405C11.809,55.59 11.637,55.742 11.6,55.742C11.563,55.742 11.675,55.59 11.849,55.405ZM13.397,53.722C13.986,53.13 14.498,52.645 14.535,52.645C14.572,52.645 14.121,53.13 13.532,53.722C12.943,54.315 12.43,54.799 12.393,54.799C12.356,54.799 12.808,54.315 13.397,53.722ZM15.013,52.241C15.147,52.093 15.287,51.972 15.324,51.972C15.361,51.972 15.281,52.093 15.147,52.241C15.013,52.389 14.873,52.511 14.836,52.511C14.799,52.511 14.879,52.389 15.013,52.241ZM15.484,51.921C15.484,51.893 15.59,51.787 15.719,51.685C15.933,51.518 15.938,51.523 15.77,51.736C15.594,51.961 15.484,52.032 15.484,51.921L15.484,51.921ZM16.022,51.517C16.022,51.489 16.128,51.383 16.258,51.282C16.472,51.114 16.476,51.119 16.309,51.332C16.133,51.557 16.022,51.628 16.022,51.517L16.022,51.517ZM103.927,47.293C103.759,47.08 103.764,47.075 103.978,47.242C104.107,47.344 104.213,47.45 104.213,47.478C104.213,47.589 104.103,47.517 103.927,47.293L103.927,47.293ZM26.23,47.167C26.327,47.129 26.443,47.133 26.488,47.178C26.533,47.223 26.453,47.255 26.311,47.249C26.155,47.242 26.123,47.21 26.23,47.167L26.23,47.167ZM27.173,47.033C27.27,46.994 27.386,46.999 27.431,47.043C27.475,47.088 27.396,47.12 27.254,47.114C27.097,47.108 27.065,47.076 27.173,47.033L27.173,47.033ZM27.98,46.898C28.078,46.859 28.194,46.864 28.238,46.909C28.283,46.954 28.204,46.985 28.062,46.98C27.905,46.973 27.873,46.941 27.98,46.898L27.98,46.898ZM28.78,46.766C28.872,46.729 29.024,46.729 29.116,46.766C29.209,46.804 29.133,46.834 28.948,46.834C28.763,46.834 28.687,46.804 28.78,46.766ZM29.731,46.629C29.828,46.59 29.944,46.595 29.989,46.64C30.034,46.684 29.954,46.716 29.812,46.71C29.655,46.704 29.623,46.672 29.731,46.629L29.731,46.629ZM30.539,46.494C30.636,46.455 30.752,46.46 30.797,46.505C30.841,46.55 30.762,46.581 30.62,46.576C30.463,46.569 30.431,46.537 30.539,46.494L30.539,46.494ZM31.481,46.36C31.578,46.321 31.694,46.326 31.739,46.37C31.784,46.415 31.704,46.447 31.562,46.441C31.406,46.434 31.374,46.403 31.481,46.36L31.481,46.36ZM32.289,46.225C32.386,46.186 32.502,46.191 32.547,46.236C32.592,46.28 32.512,46.312 32.37,46.306C32.213,46.3 32.182,46.268 32.289,46.225L32.289,46.225ZM33.088,46.093C33.181,46.056 33.332,46.056 33.425,46.093C33.518,46.131 33.442,46.161 33.257,46.161C33.072,46.161 32.996,46.131 33.088,46.093ZM34.039,45.956C34.136,45.917 34.253,45.922 34.297,45.966C34.342,46.011 34.263,46.043 34.121,46.037C33.964,46.031 33.932,45.999 34.039,45.956L34.039,45.956ZM34.847,45.821C34.944,45.782 35.06,45.787 35.105,45.832C35.15,45.876 35.07,45.908 34.928,45.902C34.772,45.896 34.74,45.864 34.847,45.821L34.847,45.821ZM35.79,45.686C35.887,45.648 36.003,45.652 36.048,45.697C36.092,45.742 36.013,45.774 35.871,45.768C35.714,45.761 35.682,45.729 35.79,45.686L35.79,45.686ZM36.597,45.552C36.695,45.513 36.811,45.518 36.856,45.562C36.9,45.607 36.821,45.639 36.679,45.633C36.522,45.627 36.49,45.595 36.597,45.552L36.597,45.552ZM37.397,45.42C37.489,45.383 37.641,45.383 37.734,45.42C37.826,45.457 37.75,45.488 37.565,45.488C37.38,45.488 37.304,45.457 37.397,45.42ZM38.348,45.282C38.445,45.244 38.561,45.248 38.606,45.293C38.651,45.338 38.571,45.37 38.429,45.364C38.272,45.357 38.24,45.325 38.348,45.282L38.348,45.282ZM39.147,45.151C39.24,45.113 39.391,45.113 39.484,45.151C39.576,45.188 39.501,45.219 39.316,45.219C39.13,45.219 39.055,45.188 39.147,45.151ZM40.098,45.013C40.195,44.974 40.312,44.979 40.356,45.024C40.401,45.069 40.321,45.1 40.18,45.095C40.023,45.088 39.991,45.056 40.098,45.013L40.098,45.013ZM40.906,44.879C41.003,44.84 41.119,44.844 41.164,44.889C41.209,44.934 41.129,44.966 40.987,44.96C40.831,44.953 40.799,44.922 40.906,44.879L40.906,44.879ZM41.849,44.744C41.946,44.705 42.062,44.71 42.107,44.755C42.151,44.799 42.072,44.831 41.93,44.825C41.773,44.819 41.741,44.787 41.849,44.744L41.849,44.744ZM42.656,44.609C42.754,44.57 42.87,44.575 42.914,44.62C42.959,44.665 42.88,44.696 42.738,44.691C42.581,44.684 42.549,44.652 42.656,44.609L42.656,44.609ZM43.456,44.477C43.548,44.44 43.7,44.44 43.792,44.477C43.885,44.515 43.809,44.545 43.624,44.545C43.439,44.545 43.363,44.515 43.456,44.477ZM44.407,44.34C44.504,44.301 44.62,44.306 44.665,44.351C44.71,44.395 44.63,44.427 44.488,44.421C44.331,44.415 44.299,44.383 44.407,44.34L44.407,44.34ZM45.215,44.205C45.312,44.166 45.428,44.171 45.473,44.216C45.517,44.261 45.438,44.293 45.296,44.287C45.139,44.28 45.107,44.248 45.215,44.205L45.215,44.205ZM46.157,44.071C46.254,44.032 46.37,44.037 46.415,44.081C46.46,44.126 46.38,44.158 46.238,44.152C46.082,44.146 46.05,44.114 46.157,44.071L46.157,44.071ZM46.965,43.936C47.062,43.897 47.178,43.902 47.223,43.947C47.268,43.991 47.188,44.023 47.046,44.017C46.889,44.011 46.858,43.979 46.965,43.936L46.965,43.936ZM47.764,43.804C47.857,43.767 48.008,43.767 48.101,43.804C48.194,43.842 48.118,43.872 47.933,43.872C47.748,43.872 47.672,43.842 47.764,43.804ZM48.715,43.667C48.812,43.628 48.929,43.633 48.973,43.677C49.018,43.722 48.939,43.754 48.797,43.748C48.64,43.742 48.608,43.71 48.715,43.667L48.715,43.667ZM49.523,43.532C49.62,43.493 49.736,43.498 49.781,43.543C49.826,43.588 49.746,43.619 49.604,43.613C49.448,43.607 49.416,43.575 49.523,43.532L49.523,43.532ZM50.466,43.398C50.563,43.359 50.679,43.363 50.724,43.408C50.768,43.453 50.689,43.485 50.547,43.479C50.39,43.472 50.358,43.44 50.466,43.398L50.466,43.398ZM51.273,43.263C51.371,43.224 51.487,43.229 51.532,43.273C51.576,43.318 51.497,43.35 51.355,43.344C51.198,43.338 51.166,43.306 51.273,43.263L51.273,43.263ZM52.073,43.131C52.166,43.094 52.317,43.094 52.41,43.131C52.502,43.168 52.426,43.199 52.241,43.199C52.056,43.199 51.98,43.168 52.073,43.131ZM53.024,42.994C53.121,42.955 53.237,42.959 53.282,43.004C53.327,43.049 53.247,43.081 53.105,43.075C52.948,43.068 52.916,43.037 53.024,42.994L53.024,42.994ZM53.832,42.859C53.929,42.82 54.045,42.825 54.09,42.87C54.135,42.914 54.055,42.946 53.913,42.94C53.756,42.934 53.724,42.902 53.832,42.859L53.832,42.859ZM54.774,42.724C54.871,42.685 54.988,42.69 55.032,42.735C55.077,42.78 54.997,42.811 54.856,42.806C54.699,42.799 54.667,42.767 54.774,42.724L54.774,42.724ZM55.582,42.59C55.679,42.551 55.795,42.556 55.84,42.6C55.885,42.645 55.805,42.677 55.663,42.671C55.507,42.664 55.475,42.633 55.582,42.59L55.582,42.59ZM56.381,42.458C56.474,42.42 56.626,42.42 56.718,42.458C56.811,42.495 56.735,42.526 56.55,42.526C56.365,42.526 56.289,42.495 56.381,42.458ZM57.332,42.32C57.43,42.281 57.546,42.286 57.59,42.331C57.635,42.376 57.556,42.408 57.414,42.402C57.257,42.395 57.225,42.363 57.332,42.32L57.332,42.32ZM58.14,42.186C58.237,42.147 58.354,42.152 58.398,42.196C58.443,42.241 58.364,42.273 58.222,42.267C58.065,42.261 58.033,42.229 58.14,42.186L58.14,42.186ZM59.083,42.051C59.18,42.012 59.296,42.017 59.341,42.062C59.386,42.106 59.306,42.138 59.164,42.132C59.007,42.126 58.975,42.094 59.083,42.051L59.083,42.051ZM59.891,41.916C59.988,41.878 60.104,41.882 60.149,41.927C60.193,41.972 60.114,42.004 59.972,41.998C59.815,41.991 59.783,41.959 59.891,41.916L59.891,41.916ZM60.833,41.782C60.93,41.743 61.046,41.748 61.091,41.792C61.136,41.837 61.056,41.869 60.914,41.863C60.758,41.857 60.726,41.825 60.833,41.782L60.833,41.782ZM61.641,41.647C61.738,41.608 61.854,41.613 61.899,41.658C61.944,41.703 61.864,41.734 61.722,41.729C61.565,41.722 61.534,41.69 61.641,41.647L61.641,41.647ZM62.44,41.515C62.533,41.478 62.684,41.478 62.777,41.515C62.87,41.553 62.794,41.583 62.609,41.583C62.424,41.583 62.348,41.553 62.44,41.515ZM63.391,41.378C63.488,41.339 63.605,41.344 63.649,41.388C63.694,41.433 63.615,41.465 63.473,41.459C63.316,41.453 63.284,41.421 63.391,41.378L63.391,41.378ZM64.199,41.243C64.296,41.204 64.412,41.209 64.457,41.254C64.502,41.299 64.422,41.33 64.281,41.325C64.124,41.318 64.092,41.286 64.199,41.243L64.199,41.243ZM65.142,41.109C65.239,41.07 65.355,41.074 65.4,41.119C65.444,41.164 65.365,41.196 65.223,41.19C65.066,41.183 65.034,41.152 65.142,41.109L65.142,41.109ZM65.613,40.03C65.658,39.452 65.759,36.798 65.838,34.132C66.186,22.362 66.259,21.375 66.943,19.332C68.509,14.65 71.678,10.512 75.829,7.726C79.644,5.165 83.831,3.884 88.46,3.86C90.744,3.849 91.795,3.964 93.936,4.462C94.998,4.709 95.154,4.78 95.044,4.966C94.973,5.086 92.747,12.606 90.095,21.677C86.546,33.822 85.321,38.189 85.449,38.238C85.544,38.275 85.004,38.312 84.247,38.319C83.419,38.326 81.828,38.499 80.247,38.752C78.803,38.983 75.046,39.568 71.899,40.053C68.752,40.537 66.031,40.966 65.854,41.007L65.531,41.081L65.613,40.03ZM86.011,38.416C86.108,38.377 86.225,38.382 86.269,38.426C86.314,38.471 86.235,38.503 86.093,38.497C85.936,38.491 85.904,38.459 86.011,38.416L86.011,38.416ZM111.236,29.083C111.236,28.898 111.266,28.822 111.304,28.914C111.341,29.007 111.341,29.158 111.304,29.251C111.266,29.344 111.236,29.268 111.236,29.083ZM111.398,26.659C111.398,25.956 111.42,25.668 111.448,26.02C111.476,26.371 111.476,26.947 111.448,27.299C111.42,27.65 111.398,27.363 111.398,26.659ZM111.236,24.236C111.236,24.05 111.266,23.975 111.304,24.067C111.341,24.16 111.341,24.311 111.304,24.404C111.266,24.496 111.236,24.421 111.236,24.236ZM111.091,23.215C111.097,23.058 111.129,23.026 111.172,23.133C111.211,23.23 111.206,23.347 111.161,23.391C111.117,23.436 111.085,23.357 111.091,23.215L111.091,23.215Z" style="fill:rgb(223,182,38);fill-rule:nonzero;"></path>
            <path id="path121" www.serif.com:id="path12" d="M123.021,120.079C122.784,119.702 90.184,62.808 89.957,62.375C89.822,62.117 90.052,61.247 91.546,56.361L93.294,50.649L92.728,49.309L94.22,46.172C95.581,43.311 95.692,43.019 95.486,42.857C95.068,42.529 102.523,46.253 103.155,46.688C103.499,46.924 104.014,47.385 104.3,47.713C105.113,48.644 125.41,84.157 126.258,86.132C128.712,91.849 129.337,97.884 128.11,104.016C127.855,105.291 123.441,120.163 123.263,120.348C123.239,120.373 123.13,120.252 123.021,120.079Z" style="fill:rgb(242,156,28);fill-rule:nonzero;"></path>
            <path id="path111" www.serif.com:id="path11" d="M99.694,44.856C98.07,44.055 94.585,42.331 91.952,41.023C88.48,39.3 86.902,38.587 86.214,38.432L85.266,38.218L85.567,37.185C91.501,16.843 94.975,5.028 95.048,4.947C95.099,4.891 95.561,4.989 96.077,5.164C101.738,7.09 106.29,11.097 108.985,16.528C110.615,19.813 111.342,22.912 111.346,26.592C111.351,31.104 110.552,33.859 108.076,37.865C107.392,38.971 102.784,46.15 102.674,46.28C102.66,46.297 101.319,45.656 99.694,44.856Z" style="fill:rgb(227,149,36);fill-rule:nonzero;"></path>
            <path id="path91" www.serif.com:id="path9" d="M39.021,133.743C39.118,133.704 39.234,133.708 39.279,133.753C39.324,133.798 39.244,133.83 39.102,133.824C38.946,133.818 38.914,133.785 39.021,133.743L39.021,133.743ZM40.771,133.473C40.869,133.434 40.985,133.439 41.029,133.484C41.074,133.529 40.995,133.56 40.853,133.555C40.696,133.549 40.664,133.516 40.771,133.473L40.771,133.473ZM45.08,132.8C45.177,132.761 45.293,132.766 45.338,132.811C45.383,132.855 45.303,132.887 45.161,132.881C45.004,132.875 44.973,132.843 45.08,132.8L45.08,132.8ZM49.389,132.127C49.486,132.088 49.602,132.093 49.647,132.137C49.691,132.182 49.612,132.214 49.47,132.208C49.313,132.202 49.281,132.17 49.388,132.127L49.389,132.127ZM51.139,131.858C51.236,131.819 51.352,131.823 51.397,131.868C51.442,131.913 51.362,131.945 51.22,131.939C51.063,131.933 51.031,131.9 51.139,131.857L51.139,131.858ZM53.697,131.454C53.794,131.415 53.91,131.419 53.955,131.464C54,131.509 53.92,131.541 53.778,131.535C53.622,131.529 53.59,131.496 53.697,131.454L53.697,131.454ZM55.447,131.184C55.545,131.145 55.661,131.15 55.705,131.195C55.75,131.24 55.671,131.272 55.529,131.266C55.372,131.26 55.34,131.227 55.447,131.184L55.447,131.184ZM36.888,127.809C35.834,125.976 34.942,124.416 34.905,124.342C34.868,124.268 35.134,124.54 35.495,124.946C38.263,128.062 41.346,129.588 45.469,129.884L46.788,129.978L43.153,130.553C41.153,130.868 39.357,131.13 39.161,131.134C38.834,131.141 38.642,130.861 36.888,127.809L36.888,127.809ZM58.006,130.78C58.103,130.741 58.219,130.746 58.264,130.791C58.308,130.836 58.229,130.868 58.087,130.862C57.93,130.856 57.898,130.823 58.006,130.78L58.006,130.78ZM59.756,130.511C59.853,130.472 59.969,130.477 60.014,130.522C60.059,130.566 59.979,130.598 59.837,130.592C59.68,130.586 59.649,130.554 59.756,130.511L59.756,130.511ZM62.314,130.107C62.411,130.068 62.527,130.073 62.572,130.118C62.617,130.162 62.537,130.194 62.396,130.188C62.239,130.182 62.207,130.15 62.314,130.107L62.314,130.107ZM47.226,129.841C47.318,129.803 47.47,129.803 47.562,129.841C47.655,129.878 47.579,129.909 47.394,129.909C47.209,129.909 47.133,129.878 47.226,129.841ZM64.065,129.838C64.162,129.799 64.278,129.804 64.323,129.848C64.367,129.893 64.288,129.925 64.146,129.919C63.989,129.913 63.957,129.881 64.065,129.838L64.065,129.838ZM48.311,129.703C48.409,129.664 48.525,129.669 48.569,129.714C48.614,129.758 48.535,129.79 48.393,129.784C48.236,129.778 48.204,129.746 48.311,129.703L48.311,129.703ZM49.119,129.568C49.216,129.529 49.333,129.534 49.377,129.579C49.422,129.624 49.343,129.656 49.201,129.65C49.044,129.644 49.012,129.611 49.119,129.568L49.119,129.568ZM50.062,129.434C50.159,129.395 50.275,129.4 50.32,129.444C50.365,129.489 50.285,129.521 50.143,129.515C49.986,129.509 49.954,129.477 50.062,129.434L50.062,129.434ZM50.87,129.299C50.967,129.26 51.083,129.265 51.128,129.31C51.172,129.354 51.093,129.386 50.951,129.38C50.794,129.374 50.762,129.342 50.87,129.299L50.87,129.299ZM51.812,129.164C51.909,129.126 52.025,129.13 52.07,129.175C52.115,129.22 52.035,129.252 51.893,129.246C51.737,129.24 51.705,129.207 51.812,129.164L51.812,129.164ZM68.373,129.164C68.47,129.126 68.586,129.13 68.631,129.175C68.676,129.22 68.596,129.252 68.454,129.246C68.298,129.24 68.266,129.207 68.373,129.164L68.373,129.164ZM52.62,129.03C52.717,128.991 52.833,128.996 52.878,129.04C52.923,129.085 52.843,129.117 52.701,129.111C52.544,129.105 52.513,129.073 52.62,129.03L52.62,129.03ZM70.123,128.895C70.221,128.856 70.337,128.861 70.381,128.906C70.426,128.95 70.347,128.982 70.205,128.976C70.048,128.97 70.016,128.938 70.123,128.895L70.123,128.895ZM54.37,128.761C54.467,128.722 54.584,128.726 54.628,128.771C54.673,128.816 54.594,128.848 54.452,128.842C54.295,128.836 54.263,128.803 54.37,128.761L54.37,128.761ZM55.178,128.626C55.275,128.587 55.391,128.592 55.436,128.637C55.481,128.681 55.401,128.713 55.259,128.707C55.103,128.701 55.071,128.669 55.178,128.626L55.178,128.626ZM56.121,128.491C56.218,128.452 56.334,128.457 56.379,128.502C56.423,128.547 56.344,128.578 56.202,128.573C56.045,128.567 56.013,128.534 56.121,128.491L56.121,128.491ZM72.682,128.491C72.779,128.452 72.895,128.457 72.94,128.502C72.984,128.547 72.905,128.578 72.763,128.573C72.606,128.567 72.574,128.534 72.682,128.491L72.682,128.491ZM56.928,128.357C57.026,128.318 57.142,128.323 57.187,128.367C57.231,128.412 57.152,128.444 57.01,128.438C56.853,128.432 56.821,128.4 56.928,128.357L56.928,128.357ZM57.871,128.222C57.968,128.183 58.084,128.188 58.129,128.233C58.174,128.277 58.094,128.309 57.952,128.303C57.795,128.297 57.764,128.265 57.871,128.222L57.871,128.222ZM74.432,128.222C74.529,128.183 74.645,128.188 74.69,128.233C74.735,128.277 74.655,128.309 74.513,128.303C74.356,128.297 74.325,128.265 74.432,128.222L74.432,128.222ZM58.679,128.087C58.776,128.048 58.892,128.053 58.937,128.098C58.982,128.143 58.902,128.175 58.76,128.169C58.603,128.163 58.571,128.13 58.679,128.087L58.679,128.087ZM59.487,127.953C59.584,127.914 59.7,127.919 59.745,127.963C59.789,128.008 59.71,128.04 59.568,128.034C59.411,128.028 59.379,127.996 59.487,127.953L59.487,127.953ZM60.429,127.818C60.526,127.779 60.642,127.784 60.687,127.829C60.732,127.873 60.652,127.905 60.511,127.899C60.354,127.893 60.322,127.861 60.429,127.818L60.429,127.818ZM76.99,127.818C77.087,127.779 77.204,127.784 77.248,127.829C77.293,127.873 77.213,127.905 77.072,127.899C76.915,127.893 76.883,127.861 76.99,127.818L76.99,127.818ZM61.237,127.683C61.334,127.645 61.45,127.649 61.495,127.694C61.54,127.739 61.46,127.771 61.318,127.765C61.162,127.759 61.13,127.726 61.237,127.683L61.237,127.683ZM62.18,127.549C62.277,127.51 62.393,127.515 62.438,127.559C62.482,127.604 62.403,127.636 62.261,127.63C62.104,127.624 62.072,127.592 62.18,127.549L62.18,127.549ZM78.741,127.549C78.838,127.51 78.954,127.515 78.999,127.559C79.043,127.604 78.964,127.636 78.822,127.63C78.665,127.624 78.633,127.592 78.741,127.549L78.741,127.549ZM62.987,127.414C63.085,127.375 63.201,127.38 63.245,127.425C63.29,127.47 63.211,127.502 63.069,127.496C62.912,127.49 62.88,127.457 62.987,127.414L62.987,127.414ZM63.795,127.28C63.892,127.241 64.009,127.246 64.053,127.29C64.098,127.335 64.019,127.367 63.877,127.361C63.72,127.355 63.688,127.323 63.795,127.28L63.795,127.28ZM64.738,127.145C64.835,127.106 64.951,127.111 64.996,127.156C65.041,127.2 64.961,127.232 64.819,127.226C64.662,127.22 64.63,127.188 64.738,127.145L64.738,127.145ZM81.299,127.145C81.396,127.106 81.512,127.111 81.557,127.156C81.602,127.2 81.522,127.232 81.38,127.226C81.223,127.22 81.191,127.188 81.299,127.145L81.299,127.145ZM65.546,127.01C65.643,126.972 65.759,126.976 65.804,127.021C65.848,127.066 65.769,127.098 65.627,127.092C65.47,127.086 65.438,127.053 65.546,127.01L65.546,127.01ZM66.488,126.876C66.585,126.837 66.701,126.842 66.746,126.886C66.791,126.931 66.711,126.963 66.569,126.957C66.413,126.951 66.381,126.919 66.488,126.876L66.488,126.876ZM83.049,126.876C83.146,126.837 83.262,126.842 83.307,126.886C83.352,126.931 83.272,126.963 83.13,126.957C82.974,126.951 82.942,126.919 83.049,126.876L83.049,126.876ZM67.296,126.741C67.393,126.702 67.509,126.707 67.554,126.752C67.599,126.796 67.519,126.828 67.377,126.822C67.22,126.816 67.189,126.784 67.296,126.741L67.296,126.741ZM68.104,126.606C68.201,126.568 68.317,126.572 68.362,126.617C68.407,126.662 68.327,126.694 68.185,126.688C68.028,126.682 67.996,126.649 68.104,126.606L68.104,126.606ZM69.046,126.472C69.143,126.433 69.26,126.438 69.304,126.482C69.349,126.527 69.27,126.559 69.128,126.553C68.971,126.547 68.939,126.515 69.046,126.472L69.046,126.472ZM69.854,126.337C69.951,126.298 70.067,126.303 70.112,126.348C70.157,126.392 70.077,126.424 69.935,126.418C69.779,126.412 69.747,126.38 69.854,126.337L69.854,126.337ZM70.695,126.202C70.691,126.115 69.539,123.661 68.136,120.749C65.628,115.548 65.577,115.456 65.207,115.495C65,115.516 59.68,116.375 53.386,117.402C47.091,118.43 41.9,119.23 41.85,119.181C41.747,119.08 36.489,110.02 36.397,109.786C36.363,109.697 36.576,109.598 36.918,109.543C37.237,109.493 37.624,109.42 37.778,109.382C38.024,109.32 38.338,109.796 40.323,113.23C41.568,115.385 42.624,117.168 42.668,117.193C42.713,117.218 48.05,116.372 54.528,115.313C61.007,114.254 66.324,113.404 66.343,113.423C66.458,113.538 71.495,124.071 71.495,124.195C71.495,124.411 70.705,126.395 70.695,126.202ZM87.358,126.203C87.455,126.164 87.571,126.168 87.616,126.213C87.66,126.258 87.581,126.29 87.439,126.284C87.282,126.278 87.25,126.245 87.358,126.203L87.358,126.203ZM89.108,125.933C89.205,125.894 89.321,125.899 89.366,125.944C89.411,125.989 89.331,126.02 89.189,126.015C89.032,126.009 89.001,125.976 89.108,125.933L89.108,125.933ZM91.666,125.529C91.763,125.49 91.88,125.495 91.924,125.54C91.969,125.585 91.889,125.617 91.748,125.611C91.591,125.605 91.559,125.572 91.666,125.529L91.666,125.529ZM93.417,125.26C93.514,125.221 93.63,125.226 93.675,125.271C93.719,125.315 93.64,125.347 93.498,125.341C93.341,125.335 93.309,125.303 93.417,125.26L93.417,125.26ZM77.663,125.125C77.761,125.087 77.877,125.091 77.921,125.136C77.966,125.181 77.887,125.213 77.745,125.207C77.588,125.201 77.556,125.168 77.663,125.125L77.663,125.125ZM78.471,124.991C78.568,124.952 78.685,124.957 78.729,125.001C78.774,125.046 78.695,125.078 78.553,125.072C78.396,125.066 78.364,125.034 78.471,124.991L78.471,124.991ZM79.414,124.856C79.511,124.817 79.627,124.822 79.672,124.867C79.717,124.911 79.637,124.943 79.495,124.937C79.338,124.931 79.306,124.899 79.414,124.856L79.414,124.856ZM95.975,124.856C96.072,124.817 96.188,124.822 96.233,124.867C96.278,124.911 96.198,124.943 96.056,124.937C95.899,124.931 95.867,124.899 95.975,124.856L95.975,124.856ZM80.222,124.721C80.319,124.683 80.435,124.687 80.48,124.732C80.524,124.777 80.445,124.809 80.303,124.803C80.146,124.797 80.114,124.764 80.222,124.721L80.222,124.721ZM81.164,124.587C81.261,124.548 81.377,124.553 81.422,124.597C81.467,124.642 81.387,124.674 81.245,124.668C81.089,124.662 81.057,124.63 81.164,124.587L81.164,124.587ZM97.725,124.587C97.822,124.548 97.938,124.553 97.983,124.597C98.028,124.642 97.948,124.674 97.806,124.668C97.65,124.662 97.618,124.63 97.725,124.587L97.725,124.587ZM81.972,124.452C82.069,124.413 82.185,124.418 82.23,124.463C82.275,124.508 82.195,124.539 82.053,124.534C81.896,124.528 81.865,124.495 81.972,124.452L81.972,124.452ZM82.78,124.318C82.877,124.279 82.993,124.283 83.038,124.328C83.083,124.373 83.003,124.405 82.861,124.399C82.704,124.393 82.672,124.36 82.78,124.317L82.78,124.318ZM83.722,124.183C83.819,124.144 83.936,124.149 83.98,124.194C84.025,124.238 83.946,124.27 83.804,124.264C83.647,124.258 83.615,124.226 83.722,124.183L83.722,124.183ZM100.283,124.183C100.381,124.144 100.497,124.149 100.541,124.194C100.586,124.238 100.507,124.27 100.365,124.264C100.208,124.258 100.176,124.226 100.283,124.183L100.283,124.183ZM84.53,124.048C84.627,124.009 84.743,124.014 84.788,124.059C84.833,124.104 84.753,124.135 84.612,124.13C84.455,124.124 84.423,124.091 84.53,124.048L84.53,124.048ZM85.473,123.914C85.57,123.875 85.686,123.88 85.731,123.924C85.775,123.969 85.696,124.001 85.554,123.995C85.397,123.989 85.365,123.957 85.473,123.914L85.473,123.914ZM102.034,123.914C102.131,123.875 102.247,123.88 102.292,123.924C102.336,123.969 102.257,124.001 102.115,123.995C101.958,123.989 101.926,123.957 102.034,123.914L102.034,123.914ZM86.281,123.779C86.378,123.74 86.494,123.745 86.539,123.79C86.583,123.834 86.504,123.866 86.362,123.86C86.205,123.854 86.173,123.822 86.281,123.779L86.281,123.779ZM87.088,123.644C87.186,123.605 87.302,123.61 87.346,123.655C87.391,123.7 87.312,123.732 87.17,123.726C87.013,123.72 86.981,123.687 87.088,123.644L87.088,123.644ZM88.031,123.51C88.128,123.471 88.244,123.476 88.289,123.52C88.334,123.565 88.254,123.597 88.112,123.591C87.955,123.585 87.923,123.553 88.031,123.51L88.031,123.51ZM88.839,123.375C88.936,123.336 89.052,123.341 89.097,123.386C89.142,123.43 89.062,123.462 88.92,123.456C88.763,123.45 88.731,123.418 88.839,123.375L88.839,123.375ZM89.781,123.24C89.878,123.202 89.995,123.206 90.039,123.251C90.084,123.296 90.004,123.328 89.863,123.322C89.706,123.316 89.674,123.283 89.781,123.24L89.781,123.24ZM106.342,123.24C106.439,123.202 106.556,123.206 106.6,123.251C106.645,123.296 106.565,123.328 106.424,123.322C106.267,123.316 106.235,123.283 106.342,123.24L106.342,123.24ZM90.589,123.106C90.686,123.067 90.802,123.072 90.847,123.116C90.892,123.161 90.812,123.193 90.67,123.187C90.514,123.181 90.482,123.149 90.589,123.106L90.589,123.106ZM91.397,122.971C91.494,122.932 91.61,122.937 91.655,122.982C91.7,123.026 91.62,123.058 91.478,123.052C91.321,123.046 91.29,123.014 91.397,122.971L91.397,122.971ZM92.339,122.836C92.437,122.798 92.553,122.802 92.597,122.847C92.642,122.892 92.563,122.924 92.421,122.918C92.264,122.912 92.232,122.879 92.339,122.836L92.339,122.836ZM93.147,122.702C93.244,122.663 93.361,122.668 93.405,122.712C93.45,122.757 93.371,122.789 93.229,122.783C93.072,122.777 93.04,122.745 93.147,122.702L93.147,122.702ZM94.09,122.567C94.187,122.528 94.303,122.533 94.348,122.578C94.393,122.622 94.313,122.654 94.171,122.648C94.014,122.642 93.982,122.61 94.09,122.567L94.09,122.567ZM110.651,122.567C110.748,122.528 110.864,122.533 110.909,122.578C110.954,122.622 110.874,122.654 110.732,122.648C110.575,122.642 110.543,122.61 110.651,122.567L110.651,122.567ZM94.898,122.433C94.995,122.394 95.111,122.398 95.156,122.443C95.2,122.488 95.121,122.52 94.979,122.514C94.822,122.508 94.79,122.475 94.898,122.432L94.898,122.433ZM112.401,122.298C112.498,122.259 112.614,122.264 112.659,122.309C112.704,122.353 112.624,122.385 112.482,122.379C112.326,122.373 112.294,122.341 112.401,122.298L112.401,122.298ZM96.648,122.163C96.745,122.124 96.861,122.129 96.906,122.174C96.951,122.219 96.871,122.25 96.729,122.245C96.572,122.239 96.541,122.206 96.648,122.163L96.648,122.163ZM97.456,122.029C97.553,121.99 97.669,121.995 97.714,122.039C97.759,122.084 97.679,122.116 97.537,122.11C97.38,122.104 97.348,122.072 97.456,122.029L97.456,122.029ZM98.398,121.894C98.496,121.855 98.612,121.86 98.656,121.905C98.701,121.949 98.622,121.981 98.48,121.975C98.323,121.969 98.291,121.937 98.398,121.894L98.398,121.894ZM114.959,121.894C115.057,121.855 115.173,121.86 115.217,121.905C115.262,121.949 115.183,121.981 115.041,121.975C114.884,121.969 114.852,121.937 114.959,121.894L114.959,121.894ZM99.206,121.759C99.303,121.72 99.419,121.725 99.464,121.77C99.509,121.815 99.429,121.847 99.288,121.841C99.131,121.835 99.099,121.802 99.206,121.759L99.206,121.759ZM100.149,121.625C100.246,121.586 100.362,121.591 100.407,121.635C100.451,121.68 100.372,121.712 100.23,121.706C100.073,121.7 100.041,121.668 100.149,121.625L100.149,121.625ZM116.71,121.625C116.807,121.586 116.923,121.591 116.968,121.635C117.012,121.68 116.933,121.712 116.791,121.706C116.634,121.7 116.602,121.668 116.71,121.625L116.71,121.625ZM100.957,121.49C101.054,121.451 101.17,121.456 101.215,121.501C101.259,121.545 101.18,121.577 101.038,121.571C100.881,121.565 100.849,121.533 100.957,121.49L100.957,121.49ZM101.764,121.355C101.862,121.317 101.978,121.321 102.022,121.366C102.067,121.411 101.988,121.443 101.846,121.437C101.689,121.431 101.657,121.398 101.764,121.355L101.764,121.355ZM102.707,121.221C102.804,121.182 102.92,121.187 102.965,121.231C103.01,121.276 102.93,121.308 102.788,121.302C102.631,121.296 102.599,121.264 102.707,121.221L102.707,121.221ZM119.268,121.221C119.365,121.182 119.481,121.187 119.526,121.231C119.571,121.276 119.491,121.308 119.349,121.302C119.192,121.296 119.16,121.264 119.268,121.221L119.268,121.221ZM103.515,121.086C103.612,121.047 103.728,121.052 103.773,121.097C103.818,121.141 103.738,121.173 103.596,121.167C103.439,121.161 103.407,121.129 103.515,121.086L103.515,121.086ZM104.457,120.951C104.554,120.913 104.671,120.917 104.715,120.962C104.76,121.007 104.68,121.039 104.539,121.033C104.382,121.027 104.35,120.994 104.457,120.951L104.457,120.951ZM121.018,120.951C121.115,120.913 121.232,120.917 121.276,120.962C121.321,121.007 121.242,121.039 121.1,121.033C120.943,121.027 120.911,120.994 121.018,120.951L121.018,120.951ZM106.744,120.233C108.578,119.315 109.748,118.029 110.504,116.099C110.821,115.29 110.863,114.995 110.87,113.503C110.879,111.552 110.778,111.233 109.352,108.696L108.518,107.213L107.813,107.34C107.425,107.411 101.719,108.461 95.132,109.674C88.545,110.887 83.147,111.866 83.135,111.85C83.124,111.834 84.795,104.14 86.849,94.752L90.584,77.683L89.562,75.457C88.927,74.074 88.306,72.94 87.925,72.464C87.222,71.586 85.988,70.705 84.885,70.292C83.199,69.661 83.578,69.621 66.762,72.241C58.294,73.56 51.322,74.705 51.267,74.784C51.071,75.07 51.171,74.7 51.565,73.678L51.966,72.639L69.506,69.908C79.153,68.406 87.145,67.18 87.265,67.182C87.485,67.187 87.597,67.415 90.246,73.217L91.37,75.68L87.639,92.74C85.587,102.124 83.918,109.811 83.929,109.823C83.94,109.836 89.645,108.797 96.606,107.515C103.567,106.233 109.272,105.193 109.284,105.204C109.296,105.214 110.855,107.923 112.749,111.224L116.192,117.224L115.839,118.158C115.644,118.671 115.448,119.134 115.403,119.185C115.342,119.256 106.1,120.774 105.732,120.774C105.694,120.774 106.149,120.531 106.744,120.233ZM38.348,109.238C38.445,109.199 38.561,109.204 38.606,109.248C38.651,109.293 38.571,109.325 38.429,109.319C38.272,109.313 38.24,109.281 38.348,109.238L38.348,109.238ZM43.195,108.295C43.292,108.256 43.408,108.261 43.453,108.306C43.498,108.35 43.418,108.382 43.276,108.376C43.119,108.37 43.088,108.338 43.195,108.295L43.195,108.295ZM43.868,108.16C43.965,108.122 44.081,108.126 44.126,108.171C44.171,108.216 44.091,108.248 43.95,108.242C43.793,108.236 43.761,108.203 43.868,108.16L43.868,108.16ZM48.715,107.218C48.812,107.179 48.929,107.184 48.973,107.229C49.018,107.273 48.939,107.305 48.797,107.299C48.64,107.293 48.608,107.261 48.715,107.218L48.715,107.218ZM49.389,107.083C49.486,107.044 49.602,107.049 49.647,107.094C49.691,107.139 49.612,107.171 49.47,107.165C49.313,107.159 49.281,107.126 49.388,107.083L49.389,107.083ZM54.236,106.141C54.333,106.102 54.449,106.107 54.494,106.151C54.538,106.196 54.459,106.228 54.317,106.222C54.16,106.216 54.128,106.184 54.236,106.141L54.236,106.141ZM54.909,106.006C55.006,105.967 55.122,105.972 55.167,106.017C55.212,106.061 55.132,106.093 54.99,106.087C54.833,106.081 54.801,106.049 54.909,106.006L54.909,106.006ZM52.992,101.78C51.739,99.557 50.646,97.646 50.564,97.534C50.433,97.355 49.311,97.494 41.264,98.686C36.23,99.432 31.956,100.074 31.766,100.113C31.434,100.182 31.281,99.941 28.081,94.316C26.244,91.088 24.771,88.418 24.807,88.382C24.878,88.312 26.423,88.042 26.468,88.093C26.483,88.11 27.779,90.38 29.349,93.138C31.895,97.611 32.235,98.146 32.495,98.087C32.865,98.004 50.928,95.327 51.124,95.327C51.204,95.327 52.367,97.26 53.709,99.622L56.147,103.918L55.777,104.873C55.573,105.399 55.376,105.827 55.339,105.825C55.301,105.823 54.245,104.003 52.992,101.78ZM12.482,85.25L10.102,81.105L10.456,80.171C10.65,79.657 10.849,79.192 10.897,79.137C10.981,79.041 43.769,73.878 43.831,73.951C43.847,73.97 44.964,76.01 46.313,78.483C48.274,82.077 48.752,83.053 48.694,83.343C48.567,83.977 47.954,85.229 47.772,85.227C47.637,85.225 47.641,85.196 47.786,85.104C47.936,85.009 47.47,84.062 45.518,80.495C44.167,78.026 43.049,75.993 43.034,75.978C42.996,75.938 20.813,79.403 20.003,79.575C18.872,79.815 17.642,80.514 16.666,81.471C14.74,83.36 13.935,86.438 14.758,88.77C14.862,89.067 14.929,89.329 14.905,89.353C14.882,89.376 13.791,87.53 12.482,85.25L12.482,85.25ZM27.173,87.964C27.27,87.925 27.386,87.93 27.431,87.975C27.475,88.019 27.396,88.051 27.254,88.045C27.097,88.039 27.065,88.007 27.173,87.964L27.173,87.964ZM28.107,87.832C28.199,87.795 28.351,87.795 28.443,87.832C28.536,87.87 28.46,87.9 28.275,87.9C28.09,87.9 28.014,87.87 28.107,87.832ZM29.049,87.698C29.142,87.66 29.293,87.66 29.386,87.698C29.478,87.735 29.403,87.766 29.217,87.766C29.032,87.766 28.957,87.735 29.049,87.698ZM30.135,87.56C30.232,87.521 30.348,87.526 30.393,87.571C30.437,87.616 30.358,87.647 30.216,87.642C30.059,87.635 30.027,87.603 30.135,87.56L30.135,87.56ZM31.077,87.426C31.174,87.387 31.29,87.391 31.335,87.436C31.38,87.481 31.3,87.513 31.158,87.507C31.002,87.5 30.97,87.469 31.077,87.426L31.077,87.426ZM32.011,87.294C32.104,87.256 32.255,87.256 32.348,87.294C32.44,87.331 32.365,87.362 32.18,87.362C31.994,87.362 31.919,87.331 32.011,87.294ZM33.097,87.156C33.194,87.117 33.31,87.122 33.355,87.167C33.4,87.212 33.32,87.243 33.178,87.238C33.021,87.231 32.989,87.199 33.097,87.156L33.097,87.156ZM34.039,87.022C34.136,86.983 34.253,86.988 34.297,87.032C34.342,87.077 34.263,87.109 34.121,87.103C33.964,87.096 33.932,87.065 34.039,87.022L34.039,87.022ZM34.973,86.89C35.066,86.852 35.217,86.852 35.31,86.89C35.403,86.927 35.327,86.958 35.142,86.958C34.957,86.958 34.881,86.927 34.973,86.89ZM35.916,86.755C36.008,86.718 36.16,86.718 36.252,86.755C36.345,86.792 36.269,86.823 36.084,86.823C35.899,86.823 35.823,86.792 35.916,86.755ZM37.001,86.618C37.099,86.579 37.215,86.584 37.259,86.628C37.304,86.673 37.225,86.705 37.083,86.699C36.926,86.693 36.894,86.661 37.001,86.618L37.001,86.618ZM37.944,86.483C38.041,86.444 38.157,86.449 38.202,86.494C38.247,86.538 38.167,86.57 38.025,86.564C37.868,86.558 37.836,86.526 37.944,86.483L37.944,86.483ZM38.878,86.351C38.971,86.314 39.122,86.314 39.215,86.351C39.307,86.389 39.231,86.419 39.046,86.419C38.861,86.419 38.785,86.389 38.878,86.351ZM39.964,86.214C40.061,86.175 40.177,86.18 40.222,86.224C40.266,86.269 40.187,86.301 40.045,86.295C39.888,86.289 39.856,86.257 39.964,86.214L39.964,86.214ZM40.906,86.079C41.003,86.04 41.119,86.045 41.164,86.09C41.209,86.134 41.129,86.166 40.987,86.16C40.831,86.154 40.799,86.122 40.906,86.079L40.906,86.079ZM41.84,85.947C41.933,85.91 42.084,85.91 42.177,85.947C42.269,85.985 42.194,86.015 42.008,86.015C41.823,86.015 41.748,85.985 41.84,85.947ZM42.783,85.813C42.875,85.775 43.027,85.775 43.119,85.813C43.212,85.85 43.136,85.881 42.951,85.881C42.766,85.881 42.69,85.85 42.783,85.813ZM43.868,85.675C43.965,85.636 44.081,85.641 44.126,85.686C44.171,85.731 44.091,85.762 43.95,85.757C43.793,85.75 43.761,85.718 43.868,85.675L43.868,85.675ZM44.811,85.541C44.908,85.502 45.024,85.506 45.069,85.551C45.113,85.596 45.034,85.628 44.892,85.622C44.735,85.615 44.703,85.584 44.811,85.541L44.811,85.541ZM45.745,85.409C45.837,85.371 45.989,85.371 46.081,85.409C46.174,85.446 46.098,85.477 45.913,85.477C45.728,85.477 45.652,85.446 45.745,85.409ZM46.83,85.271C46.927,85.232 47.044,85.237 47.088,85.282C47.133,85.327 47.054,85.358 46.912,85.353C46.755,85.346 46.723,85.314 46.83,85.271L46.83,85.271ZM55.717,83.252C55.814,83.213 55.93,83.218 55.975,83.262C56.019,83.307 55.94,83.339 55.798,83.333C55.641,83.326 55.609,83.295 55.717,83.252L55.717,83.252ZM56.651,83.12C56.743,83.082 56.895,83.082 56.987,83.12C57.08,83.157 57.004,83.188 56.819,83.188C56.634,83.188 56.558,83.157 56.651,83.12ZM57.728,82.985C57.82,82.948 57.972,82.948 58.065,82.985C58.157,83.023 58.081,83.053 57.896,83.053C57.711,83.053 57.635,83.023 57.728,82.985ZM58.805,82.851C58.898,82.813 59.049,82.813 59.142,82.851C59.234,82.888 59.158,82.918 58.973,82.918C58.788,82.918 58.712,82.888 58.805,82.851ZM59.882,82.716C59.975,82.679 60.126,82.679 60.219,82.716C60.311,82.753 60.236,82.784 60.05,82.784C59.865,82.784 59.79,82.753 59.882,82.716ZM60.959,82.581C61.052,82.544 61.203,82.544 61.296,82.581C61.389,82.619 61.313,82.649 61.128,82.649C60.942,82.649 60.867,82.619 60.959,82.581ZM62.036,82.447C62.129,82.409 62.281,82.409 62.373,82.447C62.466,82.484 62.39,82.514 62.205,82.514C62.02,82.514 61.944,82.484 62.036,82.447ZM63.114,82.312C63.206,82.275 63.358,82.275 63.45,82.312C63.543,82.349 63.467,82.38 63.282,82.38C63.097,82.38 63.021,82.349 63.114,82.312ZM64.191,82.177C64.283,82.14 64.435,82.14 64.527,82.177C64.62,82.215 64.544,82.245 64.359,82.245C64.174,82.245 64.098,82.215 64.191,82.177ZM65.268,82.043C65.36,82.005 65.512,82.005 65.604,82.043C65.697,82.08 65.621,82.111 65.436,82.111C65.251,82.111 65.175,82.08 65.268,82.043ZM66.345,81.908C66.438,81.871 66.589,81.871 66.682,81.908C66.774,81.945 66.698,81.976 66.513,81.976C66.328,81.976 66.252,81.945 66.345,81.908ZM67.422,81.773C67.515,81.736 67.666,81.736 67.759,81.773C67.851,81.811 67.776,81.841 67.59,81.841C67.405,81.841 67.33,81.811 67.422,81.773ZM68.499,81.639C68.592,81.601 68.743,81.601 68.836,81.639C68.928,81.676 68.853,81.707 68.668,81.707C68.482,81.707 68.407,81.676 68.499,81.639ZM69.576,81.504C69.669,81.467 69.82,81.467 69.913,81.504C70.006,81.541 69.93,81.572 69.745,81.572C69.56,81.572 69.484,81.541 69.576,81.504ZM70.654,81.369C70.746,81.332 70.898,81.332 70.99,81.369C71.083,81.407 71.007,81.437 70.822,81.437C70.637,81.437 70.561,81.407 70.654,81.369ZM71.731,81.235C71.823,81.197 71.975,81.197 72.067,81.235C72.16,81.272 72.084,81.303 71.899,81.303C71.714,81.303 71.638,81.272 71.731,81.235ZM72.808,81.1C72.9,81.063 73.052,81.063 73.144,81.1C73.237,81.138 73.161,81.168 72.976,81.168C72.791,81.168 72.715,81.138 72.808,81.1ZM73.885,80.966C73.978,80.928 74.129,80.928 74.222,80.966C74.314,81.003 74.238,81.033 74.053,81.033C73.868,81.033 73.792,81.003 73.885,80.966ZM74.962,80.831C75.055,80.794 75.206,80.794 75.299,80.831C75.391,80.868 75.316,80.899 75.13,80.899C74.945,80.899 74.87,80.868 74.962,80.831ZM76.039,80.696C76.132,80.659 76.283,80.659 76.376,80.696C76.468,80.734 76.393,80.764 76.208,80.764C76.022,80.764 75.947,80.734 76.039,80.696ZM77.116,80.562C77.209,80.524 77.36,80.524 77.453,80.562C77.546,80.599 77.47,80.63 77.285,80.63C77.1,80.63 77.024,80.599 77.116,80.562ZM78.194,80.427C78.286,80.39 78.438,80.39 78.53,80.427C78.623,80.464 78.547,80.495 78.362,80.495C78.177,80.495 78.101,80.464 78.194,80.427ZM8.592,74.904C8.689,74.865 8.805,74.87 8.85,74.914C8.895,74.959 8.815,74.991 8.673,74.985C8.516,74.979 8.484,74.947 8.592,74.904ZM9.4,74.769C9.497,74.73 9.613,74.735 9.658,74.78C9.703,74.825 9.623,74.856 9.481,74.851C9.324,74.844 9.292,74.812 9.4,74.769ZM11.15,74.5C11.247,74.461 11.363,74.466 11.408,74.511C11.453,74.555 11.373,74.587 11.231,74.581C11.075,74.575 11.043,74.543 11.15,74.5L11.15,74.5ZM12.9,74.231C12.998,74.192 13.114,74.196 13.158,74.241C13.203,74.286 13.124,74.318 12.982,74.312C12.825,74.305 12.793,74.274 12.9,74.231L12.9,74.231ZM13.708,74.096C13.805,74.057 13.922,74.062 13.966,74.107C14.011,74.151 13.932,74.183 13.79,74.177C13.633,74.171 13.601,74.139 13.708,74.096L13.708,74.096ZM15.459,73.827C15.556,73.788 15.672,73.793 15.717,73.837C15.761,73.882 15.682,73.914 15.54,73.908C15.383,73.902 15.351,73.87 15.459,73.827L15.459,73.827ZM17.209,73.557C17.306,73.518 17.422,73.523 17.467,73.568C17.512,73.613 17.432,73.645 17.29,73.639C17.133,73.632 17.102,73.6 17.209,73.557L17.209,73.557ZM18.017,73.423C18.114,73.384 18.23,73.389 18.275,73.433C18.32,73.478 18.24,73.51 18.098,73.504C17.941,73.498 17.909,73.466 18.017,73.423L18.017,73.423ZM19.767,73.153C19.864,73.115 19.981,73.119 20.025,73.164C20.07,73.209 19.99,73.241 19.849,73.235C19.692,73.228 19.66,73.196 19.767,73.153L19.767,73.153ZM21.518,72.884C21.615,72.845 21.731,72.85 21.776,72.895C21.82,72.94 21.741,72.971 21.599,72.966C21.442,72.959 21.41,72.927 21.518,72.884L21.518,72.884ZM22.325,72.75C22.423,72.711 22.539,72.715 22.583,72.76C22.628,72.805 22.549,72.837 22.407,72.831C22.25,72.824 22.218,72.793 22.325,72.75L22.325,72.75ZM24.076,72.48C24.173,72.441 24.289,72.446 24.334,72.491C24.379,72.536 24.299,72.567 24.157,72.562C24,72.555 23.968,72.523 24.076,72.48L24.076,72.48ZM25.826,72.211C25.923,72.172 26.039,72.177 26.084,72.222C26.129,72.266 26.049,72.298 25.907,72.292C25.751,72.286 25.719,72.254 25.826,72.211L25.826,72.211ZM27.576,71.942C27.674,71.903 27.79,71.908 27.835,71.952C27.879,71.997 27.8,72.029 27.658,72.023C27.501,72.017 27.469,71.985 27.576,71.942L27.576,71.942ZM28.384,71.807C28.481,71.768 28.598,71.773 28.642,71.818C28.687,71.862 28.608,71.894 28.466,71.888C28.309,71.882 28.277,71.85 28.384,71.807L28.384,71.807ZM30.135,71.538C30.232,71.499 30.348,71.504 30.393,71.548C30.437,71.593 30.358,71.625 30.216,71.619C30.059,71.613 30.027,71.581 30.135,71.538L30.135,71.538ZM31.885,71.268C31.982,71.23 32.098,71.234 32.143,71.279C32.188,71.324 32.108,71.356 31.966,71.35C31.809,71.343 31.778,71.311 31.885,71.268L31.885,71.268ZM32.693,71.134C32.79,71.095 32.906,71.1 32.951,71.144C32.996,71.189 32.916,71.221 32.774,71.215C32.617,71.209 32.585,71.177 32.693,71.134L32.693,71.134ZM34.443,70.865C34.54,70.826 34.657,70.83 34.701,70.875C34.746,70.92 34.666,70.952 34.525,70.946C34.368,70.939 34.336,70.908 34.443,70.865L34.443,70.865ZM36.194,70.595C36.291,70.556 36.407,70.561 36.452,70.606C36.496,70.651 36.417,70.682 36.275,70.677C36.118,70.67 36.086,70.638 36.194,70.595L36.194,70.595ZM37.001,70.461C37.099,70.422 37.215,70.427 37.259,70.471C37.304,70.516 37.225,70.548 37.083,70.542C36.926,70.535 36.894,70.504 37.001,70.461L37.001,70.461ZM38.752,70.191C38.849,70.152 38.965,70.157 39.01,70.202C39.055,70.247 38.975,70.279 38.833,70.273C38.676,70.266 38.644,70.234 38.752,70.191L38.752,70.191ZM40.502,69.922C40.599,69.883 40.715,69.888 40.76,69.933C40.805,69.977 40.725,70.009 40.583,70.003C40.427,69.997 40.395,69.965 40.502,69.922L40.502,69.922ZM41.31,69.787C41.407,69.749 41.523,69.753 41.568,69.798C41.613,69.843 41.533,69.875 41.391,69.869C41.234,69.862 41.203,69.83 41.31,69.787L41.31,69.787ZM43.06,69.518C43.157,69.479 43.274,69.484 43.318,69.529C43.363,69.573 43.284,69.605 43.142,69.599C42.985,69.593 42.953,69.561 43.06,69.518L43.06,69.518ZM44.811,69.249C44.908,69.21 45.024,69.215 45.069,69.259C45.113,69.304 45.034,69.336 44.892,69.33C44.735,69.324 44.703,69.292 44.811,69.249L44.811,69.249ZM45.619,69.114C45.716,69.075 45.832,69.08 45.877,69.125C45.921,69.17 45.842,69.201 45.7,69.196C45.543,69.189 45.511,69.157 45.619,69.114L45.619,69.114ZM46.561,68.98C46.658,68.941 46.774,68.945 46.819,68.99C46.864,69.035 46.784,69.067 46.642,69.061C46.486,69.054 46.454,69.023 46.561,68.98L46.561,68.98ZM47.369,68.845C47.466,68.806 47.582,68.811 47.627,68.856C47.672,68.9 47.592,68.932 47.45,68.926C47.293,68.92 47.261,68.888 47.369,68.845L47.369,68.845ZM49.119,68.576C49.216,68.537 49.333,68.542 49.377,68.586C49.422,68.631 49.343,68.663 49.201,68.657C49.044,68.65 49.012,68.619 49.119,68.576L49.119,68.576ZM50.87,68.306C50.967,68.267 51.083,68.272 51.128,68.317C51.172,68.362 51.093,68.394 50.951,68.388C50.794,68.381 50.762,68.349 50.87,68.306L50.87,68.306ZM51.677,68.172C51.775,68.133 51.891,68.138 51.935,68.182C51.98,68.227 51.901,68.259 51.759,68.253C51.602,68.247 51.57,68.215 51.677,68.172L51.677,68.172ZM53.428,67.902C53.525,67.864 53.641,67.868 53.686,67.913C53.731,67.958 53.651,67.99 53.509,67.984C53.352,67.977 53.32,67.945 53.428,67.902L53.428,67.902ZM55.178,67.633C55.275,67.594 55.391,67.599 55.436,67.644C55.481,67.688 55.401,67.72 55.259,67.714C55.103,67.708 55.071,67.676 55.178,67.633L55.178,67.633ZM55.986,67.498C56.083,67.46 56.199,67.464 56.244,67.509C56.289,67.554 56.209,67.586 56.067,67.58C55.91,67.573 55.879,67.541 55.986,67.498L55.986,67.498ZM57.736,67.229C57.834,67.19 57.95,67.195 57.994,67.24C58.039,67.285 57.96,67.316 57.818,67.311C57.661,67.304 57.629,67.272 57.736,67.229L57.736,67.229ZM59.487,66.96C59.584,66.921 59.7,66.926 59.745,66.971C59.789,67.015 59.71,67.047 59.568,67.041C59.411,67.035 59.379,67.003 59.487,66.96L59.487,66.96ZM60.295,66.825C60.392,66.786 60.508,66.791 60.553,66.836C60.597,66.881 60.518,66.912 60.376,66.907C60.219,66.9 60.187,66.868 60.295,66.825L60.295,66.825ZM75.778,64.402C75.876,64.363 75.992,64.368 76.036,64.412C76.081,64.457 76.002,64.489 75.86,64.483C75.703,64.477 75.671,64.445 75.778,64.402L75.778,64.402ZM80.087,63.728C80.184,63.69 80.3,63.694 80.345,63.739C80.39,63.784 80.31,63.816 80.168,63.81C80.011,63.803 79.98,63.771 80.087,63.728L80.087,63.728ZM89.672,62.339C89.55,62.261 89.534,62.208 89.63,62.207C89.718,62.206 89.828,62.265 89.874,62.339C89.977,62.507 89.93,62.507 89.672,62.339L89.672,62.339Z" style="fill:rgb(140,31,94);fill-rule:nonzero;"></path>
            <path id="path81" www.serif.com:id="path8" d="M20.56,104.866C11.392,88.865 3.913,75.75 3.94,75.723C3.967,75.696 4.985,75.52 6.202,75.332C7.419,75.143 8.991,74.898 9.694,74.786C11.137,74.556 11.699,74.468 14.743,73.998C15.928,73.814 17.867,73.513 19.052,73.328C20.237,73.143 22.206,72.836 23.428,72.645C27.071,72.077 27.211,72.055 28.612,71.833C30.158,71.588 30.761,71.494 33.728,71.036C34.913,70.852 36.852,70.551 38.036,70.366C40.077,70.047 41.545,69.818 46.721,69.012C47.943,68.821 49.306,68.607 49.75,68.536C50.195,68.465 51.528,68.257 52.712,68.073C55.521,67.639 58.476,67.175 62.137,66.594C74.462,64.636 89.574,62.325 89.71,62.377C89.8,62.412 91.307,64.948 93.059,68.012C96.157,73.428 98.713,77.889 105.895,90.412C107.806,93.745 110.655,98.713 112.226,101.453C114.953,106.21 119.685,114.458 122.071,118.614C122.685,119.684 123.17,120.577 123.149,120.599C123.092,120.656 37.725,133.97 37.455,133.964C37.297,133.96 32.194,125.172 20.56,104.866ZM43.727,130.465C52.02,129.193 70.755,126.272 70.768,126.25C70.847,126.124 71.496,124.304 71.498,124.205C71.499,124.132 70.338,121.662 68.916,118.715C66.401,113.5 66.323,113.36 65.985,113.431C65.479,113.537 43.494,117.111 43.028,117.163C42.643,117.205 42.579,117.113 40.373,113.309C39.129,111.165 38.126,109.397 38.144,109.379C38.162,109.362 41.962,108.614 46.589,107.717C51.216,106.82 55.085,106.042 55.186,105.987C55.288,105.933 55.547,105.446 55.761,104.906L56.151,103.924L53.71,99.625C52.368,97.261 51.204,95.327 51.124,95.327C50.928,95.327 32.865,98.004 32.495,98.087C32.235,98.146 31.896,97.613 29.357,93.156C27.792,90.408 26.529,88.147 26.551,88.131C26.574,88.115 31.378,87.448 37.229,86.65C43.079,85.851 47.904,85.175 47.952,85.147C48.075,85.074 48.741,83.379 48.741,83.137C48.741,82.989 44.046,74.206 43.831,73.951C43.769,73.878 10.981,79.041 10.897,79.137C10.849,79.192 10.65,79.657 10.456,80.17L10.102,81.104L12.648,85.556C18.477,95.75 34.197,123.164 36.414,127.001C38.233,130.151 38.867,131.142 39.062,131.142C39.204,131.142 41.303,130.837 43.727,130.465ZM91.236,123.07C112.005,119.819 115.314,119.287 115.403,119.185C115.448,119.133 115.644,118.671 115.839,118.158L116.192,117.224L112.749,111.224C110.855,107.923 109.296,105.214 109.284,105.204C109.272,105.193 103.567,106.233 96.606,107.515C89.645,108.797 83.94,109.836 83.929,109.823C83.918,109.811 85.587,102.124 87.639,92.74L91.37,75.68L90.246,73.217C87.597,67.415 87.485,67.187 87.265,67.182C87.145,67.18 79.153,68.406 69.506,69.908L51.966,72.639L51.157,74.735L53.4,79.006C54.634,81.355 55.65,83.286 55.659,83.298C55.668,83.31 60.916,82.664 67.321,81.863C73.727,81.061 78.978,80.415 78.991,80.428C79.003,80.44 77.258,87.781 75.112,96.741C72.966,105.701 71.202,113.123 71.192,113.235C71.182,113.346 72.405,115.83 73.909,118.755C76.963,124.691 77.248,125.217 77.408,125.217C77.469,125.217 83.692,124.251 91.236,123.07Z" style="fill:rgb(57,35,89);fill-rule:nonzero;stroke:rgb(57,35,89);stroke-width:0.5px;"></path>
            <path id="path101" www.serif.com:id="path10" d="M44.769,129.849C42.779,129.576 41.478,129.192 39.921,128.418C37.945,127.435 36.16,125.925 34.944,124.208C34.004,122.881 15.184,89.942 14.865,89.065C13.921,86.478 14.637,83.461 16.666,81.471C17.642,80.514 18.872,79.815 20.003,79.575C20.813,79.403 42.996,75.938 43.034,75.978C43.243,76.193 47.943,84.994 47.882,85.055C47.835,85.102 42.813,85.824 36.723,86.659C24.76,88.299 24.774,88.297 24.774,88.421C24.774,88.467 26.269,91.132 28.097,94.344C31.281,99.941 31.434,100.182 31.766,100.113C33.261,99.804 50.42,97.357 50.501,97.441C50.647,97.592 55.335,105.877 55.296,105.916C55.279,105.933 51.388,106.706 46.65,107.634C35.77,109.765 36.429,109.634 36.375,109.676C36.328,109.714 41.691,119.025 41.85,119.181C41.9,119.23 47.091,118.43 53.386,117.402C59.68,116.375 65,115.516 65.207,115.495C65.577,115.457 65.628,115.548 68.136,120.749C69.539,123.661 70.687,126.085 70.687,126.135C70.687,126.186 65.461,127.042 59.074,128.037C48.327,129.712 45.957,130.012 44.769,129.849ZM74.261,119.287L71.2,113.361L75.13,96.929C77.292,87.891 79.027,80.463 78.986,80.422C78.944,80.381 73.695,80.999 67.321,81.795C60.947,82.592 55.711,83.221 55.686,83.193C55.57,83.065 51.299,74.856 51.299,74.762C51.299,74.704 58.242,73.573 66.729,72.249C83.582,69.62 83.199,69.662 84.885,70.292C85.988,70.705 87.222,71.586 87.925,72.464C88.306,72.94 88.927,74.074 89.562,75.457L90.584,77.683L86.849,94.752C84.795,104.14 83.124,111.834 83.135,111.85C83.147,111.866 88.545,110.887 95.132,109.674C101.719,108.461 107.425,107.411 107.813,107.34L108.518,107.213L109.352,108.696C110.778,111.233 110.879,111.552 110.87,113.503C110.863,114.995 110.821,115.29 110.504,116.099C109.744,118.04 108.562,119.334 106.721,120.238L105.627,120.776L91.759,122.93C84.131,124.114 77.763,125.113 77.606,125.148C77.352,125.206 76.999,124.587 74.261,119.287Z" style="fill:rgb(219,37,71);fill-rule:nonzero;stroke:rgb(219,37,71);stroke-width:1px;"></path>
        </g>
    </g>
</svg>