<?xml version="1.0" encoding="utf-8"?>
<svg width="18" height="18" viewBox="0 0 18 18" fill="none" xmlns="http://www.w3.org/2000/svg">
<path fill-rule="evenodd" clip-rule="evenodd" d="M9 0C4.0275 0 0 4.13211 0 9.22838C0 13.3065 2.5785 16.7648 6.1545 17.9841C6.6045 18.0734 6.771 17.7821 6.771 17.5338C6.771 17.3109 6.7635 16.7448 6.759 15.9712C4.254 16.5261 3.726 14.7636 3.726 14.7636C3.3165 13.7002 2.7255 13.4104 2.7255 13.4104C1.9095 12.8409 2.7885 12.8518 2.7885 12.8518C3.6915 12.9185 4.1655 13.8005 4.1655 13.8005C4.9695 15.1894 6.273 14.7825 6.786 14.5431C6.8685 13.9493 7.1 13.5447 7.3575 13.3115C5.358 13.0756 3.258 12.2922 3.258 8.75838C3.258 7.75081 3.6045 6.92503 4.182 6.27588C4.0845 6.03728 3.7785 5.10438 4.2735 3.83468C4.2735 3.83468 4.9185 3.58075 6.75 4.77462C7.4775 4.56958 8.244 4.46706 9.006 4.46433C9.768 4.46706 10.5348 4.56958 11.264 4.77462C13.092 3.58075 13.7355 3.83468 13.7355 3.83468C14.232 5.10438 13.926 6.03728 13.8285 6.27588C14.4075 6.92503 14.751 7.75081 14.751 8.75838C14.751 12.3031 12.6465 13.0729 10.638 13.3034C10.959 13.5884 11.2515 14.1518 11.2515 15.0111C11.2515 16.2426 11.241 17.2364 11.241 17.5338C11.241 17.784 11.4045 18.0779 11.862 17.9832C15.4335 16.7593 18 13.3048 18 9.22838C18 4.13211 13.9725 0 9 0Z" fill="currentColor"/>
</svg>